0
SECTION
2
HEADER
9
$INSUNITS
70
4
9
$ACADVER
1
AC1014
9
$HANDSEED
5
FFFF
0
ENDSEC
0
SECTION
2
TABLES
0
TABLE
2
VPORT
5
8
100
AcDbSymbolTable
0
ENDTAB
0
TABLE
2
LTYPE
5
5
100
AcDbSymbolTable
0
LTYPE
5
14
100
AcDbSymbolTableRecord
100
AcDbLinetypeTableRecord
2
BYBLOCK
70
0
0
LTYPE
5
15
100
AcDbSymbolTableRecord
100
AcDbLinetypeTableRecord
2
BYLAYER
70
0
0
LTYPE
5
16
100
AcDbSymbolTableRecord
100
AcDbLinetypeTableRecord
2
DASHED
70
0
3
Dashed __ __ __ __ __ __ __ __ __ __ __ __ __ _
72
65
73
2
40
0.75
49
0.5
74
0
49
-0.25
74
0
0
ENDTAB
0
TABLE
2
LAYER
5
2
100
AcDbSymbolTable
70
2
0
LAYER
5
50
100
AcDbSymbolTableRecord
100
AcDbLayerTableRecord
2
0
70
0
62
7
6
CONTINUOUS
0
ENDTAB
0
TABLE
2
STYLE
5
3
100
AcDbSymbolTable
70
1
0
STYLE
5
11
100
AcDbSymbolTableRecord
100
AcDbTextStyleTableRecord
2
STANDARD
70
0
0
ENDTAB
0
TABLE
2
VIEW
5
6
100
AcDbSymbolTable
70
0
0
ENDTAB
0
TABLE
2
UCS
5
7
100
AcDbSymbolTable
70
0
0
ENDTAB
0
TABLE
2
APPID
5
9
100
AcDbSymbolTable
70
2
0
APPID
5
12
100
AcDbSymbolTableRecord
100
AcDbRegAppTableRecord
2
ACAD
70
0
0
ENDTAB
0
TABLE
2
DIMSTYLE
5
A
100
AcDbSymbolTable
70
1
0
ENDTAB
0
TABLE
2
BLOCK_RECORD
5
1
100
AcDbSymbolTable
70
1
0
BLOCK_RECORD
5
1F
100
AcDbSymbolTableRecord
100
AcDbBlockTableRecord
2
*MODEL_SPACE
0
BLOCK_RECORD
5
1B
100
AcDbSymbolTableRecord
100
AcDbBlockTableRecord
2
*PAPER_SPACE
0
ENDTAB
0
ENDSEC
0
SECTION
2
BLOCKS
0
BLOCK
5
20
100
AcDbEntity
100
AcDbBlockBegin
2
*MODEL_SPACE
0
ENDBLK
5
21
100
AcDbEntity
100
AcDbBlockEnd
0
BLOCK
5
1C
100
AcDbEntity
100
AcDbBlockBegin
2
*PAPER_SPACE
0
ENDBLK
5
1D
100
AcDbEntity
100
AcDbBlockEnd
0
ENDSEC
0
SECTION
2
ENTITIES
0
LWPOLYLINE
5
100
100
AcDbEntity
8
0
100
AcDbPolyline
90
244
70
1
43
0.0
10
366.39831098127905
20
-51.500269029074758
42
0.21434195870796963
10
364.09802948481519
20
-50.239640247415025
42
0.69535462154123262
10
360.79478929922601
20
-55.248033272949797
10
360.64992006042354
20
-56.185944206828786
42
0.69535462153835847
10
362.2880819937651
20
-61.957583653462009
42
0.21434195870997944
10
364.8615197438379
20
-61.449747031360367
42
-0.031519987104419285
10
354.24279884461464
20
-106.82714761115291
42
0.21434195870797168
10
352.1619097536614
20
-105.2301565406469
42
0.69535462154120997
10
348.13285453276427
20
-109.67561607244825
10
347.84651166733011
20
-110.58042090204184
42
0.69535462153837724
10
348.58443840673579
20
-116.53448342682714
42
0.2143419587099539
10
351.20523745381399
20
-116.42543186525575
42
-0.031519987104419063
10
333.78413574530612
20
-159.65008839571703
42
0.21434195870794903
10
331.97141333647556
20
-157.75416715351105
42
0.69535462154119621
10
327.31098071977948
20
-161.53249538794981
10
326.88987586178649
20
-162.38298625492939
42
0.69535462153836192
10
326.7102710299223
20
-168.37991367871507
42
0.21434195870996195
10
329.31700206562874
20
-168.67220325384952
42
-0.031519987104419285
10
305.50185540644225
20
-208.73096642142613
42
0.21434195870795905
10
303.99978835660522
20
-206.58055379452912
42
0.69535462154121597
10
298.8172149346459
20
-209.60318992015254
10
298.27121842505358
20
-210.37943203943871
42
0.69535462153837824
10
297.1782918069523
20
-216.27866146617129
42
0.21434195870998318
10
299.70985526517165
20
-216.96544115810227
42
-0.020388482237168996
10
281.04165845749702
20
-240.65657317318312
42
0.63783137816542557
10
284.80029456725805
20
-248.90853517119427
42
-2.3249527663231002
10
259.63078439472019
20
-275.0609433158919
42
0.6378313761365817
10
251.24095828985628
20
-271.62102436592784
42
-0.020385093432773293
10
228.28593457656348
20
-291.17955298150014
42
0.21434195870796729
10
227.50269305563825
20
-288.67615277218016
42
0.69535462154121508
10
221.64965467242399
20
-289.99423399370738
10
220.89489533321819
20
-290.56956203589073
42
0.69535462153838168
10
218.07298400485564
20
-295.86410761380785
42
0.21434195870996192
10
220.27935189242908
20
-297.28270573622774
42
-0.031519987104419951
10
181.16216982462109
20
-322.61473652707849
42
0.21434195870797781
10
180.77024981246481
20
-320.02111384978036
42
0.69535462154120742
10
174.78460240369074
20
-320.4302855982649
10
173.95086511025795
20
-320.88365756671931
42
0.69535462153837879
10
170.3538167940599
20
-325.68539056978398
42
0.21434195870995787
10
172.31777899702411
20
-327.42416380214513
42
-0.031519987104419285
10
129.79211735792484
20
-346.4881040840333
42
0.21434195870796133
10
129.80070512744649
20
-343.86505125605999
42
0.69535462154122518
10
123.82274719517471
20
-343.3557228925153
10
122.92957404303002
20
-343.67651213256056
42
0.69535462153840921
10
118.64170050281147
20
-347.87288400894084
42
0.214341958709967
10
120.31722341170635
20
-349.89107698039231
42
-0.031519987104419285
10
75.379847667055998
20
-362.24008415095739
42
0.21434195870795511
10
75.788741928216609
20
-359.64908330740013
42
0.6953546215412294
10
69.958591739697454
20
-358.23319305698101
10
69.02691795050859
20
-358.41388054071865
42
0.69535462153836625
10
64.148723307819211
20
-361.90653189031241
42
0.21434195870996472
10
65.496534085768559
20
-364.15683986814383
42
-0.031519987104419729
10
19.200738235867604
20
-369.50146366584113
42
0.21434195870795753
10
20.000354853748252
20
-367.00324567044254
42
0.69535462154122352
10
14.454666187994425
20
-364.71398080056593
10
13.506329405729989
20
-364.75033136652075
42
0.69535462153838845
10
8.1521544084283093
20
-367.45739740192732
42
0.2143419587099632
10
9.140661513147478
20
-369.88707507441143
42
-0.031519987104419285
10
-37.428420225778119
20
-368.10204204731571
42
0.21434195870793959
10
-36.256823586976935
20
-365.7551630124965
42
0.69535462154121197
10
-41.388064487947915
20
-362.64618195142128
10
-42.330836052884671
20
-362.53734357313675
42
0.69535462153838068
10
-48.035494080850142
20
-364.39537296088901
42
0.21434195870996919
10
-47.42946041807636
20
-366.94747074268173
42
-0.031519987104419063
10
-93.180288240189924
20
-358.0746205520245
42
0.21434195870797296
10
-91.664172812682352
20
-355.93408933323826
42
0.69535462154120931
10
-96.260694011189841
20
-352.07826396198612
10
-97.175802592372975
20
-351.826787718802
42
0.69535462153838012
10
-103.09723130187066
20
-352.79222982484379
42
0.21434195870995756
10
-102.88787599644635
20
-355.40692870699786
42
-0.031519987104419063
10
-146.74808927420136
20
-339.65423344096899
42
0.21434195870798448
10
-144.92299151860843
20
-337.77022227575424
42
0.69535462154120309
10
-148.87705445359012
20
-333.25792987298087
10
-149.74305068148666
20
-332.86971015489604
42
0.69535462153838301
10
-155.74245680233625
20
-332.91993583453257
42
0.2143419587099778
10
-155.93468696517894
20
-335.53594949136652
42
-0.031519987104419729
10
-196.87623947353865
20
-313.2726389756358
42
0.21434195870795533
10
-194.78493813437035
20
-311.68930748889119
42
0.6953546215412113
10
-198.00386292193861
20
-306.62631236407617
10
-198.80044857895112
20
-306.11044871224271
42
0.6953546215383738
10
-204.73721111654066
20
-305.24428071811252
42
0.21434195870995515
10
-205.32652103556126
20
-307.80029200674005
42
-0.031519987104419285
10
-242.38977748417898
20
-279.54819937029004
42
0.2143419587079699
10
-240.08129089232051
20
-278.30265951009528
42
0.69535462154121697
10
-242.4896286636889
20
-272.8076339777686
10
-243.1981324571716
20
-272.17621779895984
42
0.6953546215383829
10
-248.93309872938664
20
-270.41395837471538
42
0.21434195870994929
10
-249.90567547955862
20
-272.85005655690577
42
-0.031519987104419063
10
-282.22190455063861
20
-239.27138690577149
42
0.21434195870795994
10
-279.75034167522074
20
-238.39283307077895
42
0.69535462154120675
10
-281.29164303424085
20
-232.59457587205063
10
-281.89545823577453
20
-231.86240702633415
42
0.69535462153836258
10
-287.29420549392631
20
-229.24536203925794
42
0.21434195870996078
10
-288.62725270054403
20
-231.50444703836146
42
-0.031519987104418619
10
-315.43898937462563
20
-193.38625592920508
42
0.21434195870795003
10
-312.86228155464852
20
-192.89528067667928
42
0.69535462154121253
10
-313.50041970381125
20
-186.92969804591263
10
-313.98539339684203
20
-186.11393795047462
42
0.69535462153837813
10
-318.92137958096549
20
-182.70344871695923
42
0.21434195870996747
10
-320.58365174734314
20
-184.73256949530978
42
-0.031519987104419285
10
-341.26245164136117
20
-142.96831502024799
42
0.21434195870796399
10
-338.64099472420878
20
-142.87642639397686
42
0.69535462154123162
10
-338.36101224615857
20
-136.88334653184364
10
-338.71577705836648
20
-136.00311591191488
42
0.69535462153837857
10
-343.0733068358536
20
-131.87912140899729
42
0.2143419587099267
10
-345.02584171128842
20
-133.63071709535231
42
-0.031519987104419063
10
-359.08701128226437
20
-89.199317981541071
42
0.21434195870795661
10
-356.48224999623102
20
-89.508669773043152
42
0.6953546215412123
10
-355.29070944295137
20
-83.628565392012817
10
-355.50694998782285
20
-82.704496107275673
42
0.6953546215383789
10
-359.18388655396041
20
-77.963659270768545
42
0.21434195870994194
10
-361.38091837586416
20
-79.39667394682391
42
-0.031519987104419285
10
-368.49487572674917
20
-33.339564531182717
42
0.21434195870795375
10
-365.96786346868606
20
-34.042905796659674
42
0.69535462154121852
10
-363.89269354084286
20
-28.413601559678249
10
-363.96534132328316
20
-27.467353010962089
42
0.69535462153838468
10
-366.87550040138774
20
-22.220795038166237
42
0.2143419587099519
10
-369.26553260597257
20
-23.301640054482821
42
-0.031519987104419729
10
-369.26553260597257
20
23.301640054481805
42
0.21434195870794417
10
-366.87550040141241
20
22.220795038168365
42
0.69535462154121319
10
-363.96534132328179
20
27.46735301096308
10
-363.89269354084399
20
28.413601559679471
42
0.69535462153838168
10
-365.96786346866133
20
34.042905796658005
42
0.21434195870998587
10
-368.49487572674923
20
33.339564531181701
42
-0.031519987104419729
10
-361.38091837586416
20
79.396673946823555
42
0.21434195870795963
10
-359.18388655398462
20
77.963659270774272
42
0.69535462154120276
10
-355.50694998782149
20
82.704496107276299
10
-355.29070944295245
20
83.628565392013968
42
0.69535462153837302
10
-356.48224999620686
20
89.508669773037553
42
0.21434195870997258
10
-359.08701128226477
20
89.199317981539963
42
-0.031519987104419729
10
-345.02584171128854
20
133.63071709535217
42
0.21434195870794037
10
-343.07330683587656
20
131.87912140900676
42
0.69535462154122085
10
-338.71577705836495
20
136.00311591191547
10
-338.36101224615931
20
136.88334653184509
42
0.69535462153836325
10
-338.64099472418559
20
142.87642639396776
42
0.21434195870998607
10
-341.26245164136139
20
142.96831502024767
42
-0.031519987104419285
10
-320.58365174734331
20
184.73256949530946
42
0.21434195870795475
10
-318.9213795809867
20
182.70344871697205
42
0.69535462154119321
10
-313.98539339684044
20
186.11393795047491
10
-313.50041970381176
20
186.92969804591417
42
0.69535462153836558
10
-312.86228155462709
20
192.8952806766668
42
0.21434195870997352
10
-315.43898937462592
20
193.38625592920471
42
-0.031519987104419285
10
-288.62725270054369
20
231.50444703836195
42
0.21434195870796893
10
-287.29420549394536
20
229.24536203927391
42
0.69535462154121852
10
-281.89545823577288
20
231.86240702633427
10
-281.29164303424108
20
232.59457587205225
42
0.69535462153838323
10
-279.75034167520153
20
238.39283307076334
42
0.21434195870994441
10
-282.22190455063895
20
239.27138690577121
42
-0.031519987104419285
10
-249.90567547955877
20
272.85005655690577
42
0.21434195870796788
10
-248.93309872940293
20
270.41395837473402
42
0.69535462154122119
10
-243.19813245716998
20
272.17621779895967
10
-242.48962866368885
20
272.80763397777031
42
0.6953546215383799
10
-240.08129089230383
20
278.30265951007698
42
0.21434195870999059
10
-242.38977748417977
20
279.54819937028935
42
-0.031519987104419729
10
-205.32652103556157
20
307.80029200673982
42
0.21434195870795067
10
-204.73721111655408
20
305.24428071813338
42
0.69535462154120242
10
-198.80044857894961
20
306.11044871224226
10
-198.00386292193849
20
306.62631236407782
42
0.69535462153836958
10
-194.78493813435679
20
311.68930748887044
42
0.21434195870996448
10
-196.8762394735387
20
313.27263897563574
42
-0.031519987104419063
10
-155.93468696517991
20
335.53594949136601
42
0.21434195870795117
10
-155.74245680234634
20
332.91993583455513
42
0.6953546215412294
10
-149.74305068148533
20
332.8697101548953
10
-148.87705445358978
20
333.25792987298234
42
0.69535462153836347
10
-144.92299151859822
20
337.77022227573161
42
0.21434195870995928
10
-146.74808927420275
20
339.6542334409682
42
-0.031519987104419951
10
-102.88787599644657
20
355.40692870699775
42
0.21434195870795736
10
-103.09723130187703
20
352.79222982486777
42
0.69535462154120675
10
-97.175802592371596
20
351.82678771880103
10
-96.260694011189116
20
352.0782639619876
42
0.69535462153837513
10
-91.664172812675574
20
355.93408933321462
42
0.21434195870996714
10
-93.180288240190265
20
358.0746205520245
42
-0.031519987104419285
10
-47.429460418076403
20
366.94747074268184
42
0.21434195870795764
10
-48.035494080852949
20
364.39537296091368
42
0.69535462154121563
10
-42.330836052883626
20
362.53734357313562
10
-41.388064487947076
20
362.64618195142259
42
0.69535462153837946
10
-36.256823586974036
20
365.75516301247194
42
0.21434195870997458
10
-37.428420225779313
20
368.10204204731565
42
-0.031519987104419729
10
9.1406615131469469
20
369.88707507441143
42
0.21434195870796555
10
8.1521544084295599
20
367.45739740195211
42
0.69535462154120475
10
13.506329405731092
20
364.7503313665195
10
14.454666187995635
20
364.71398080056707
42
0.69535462153837413
10
20.000354853747602
20
367.00324567041781
42
0.21434195870994269
10
19.200738235867334
20
369.50146366584107
42
-0.031519987104419285
10
65.496534085767621
20
364.15683986814395
42
0.21434195870795306
10
64.148723307824156
20
361.90653189033668
42
0.69535462154121319
10
69.026917950509429
20
358.41388054071723
10
69.958591739698733
20
358.23319305698197
42
0.69535462153838434
10
75.788741928212104
20
359.64908330737569
42
0.21434195870995365
10
75.379847667055628
20
362.24008415095739
42
-0.031519987104419285
10
120.31722341170595
20
349.89107698039231
42
0.21434195870794429
10
118.64170050281987
20
347.87288400896415
42
0.69535462154122651
10
122.92957404303046
20
343.67651213255903
10
123.82274719517604
20
343.3557228925161
42
0.69535462153837713
10
129.80070512743811
20
343.86505125603657
42
0.21434195870996592
10
129.79211735792461
20
346.4881040840333
42
-0.031519987104419063
10
172.31777899702359
20
327.42416380214536
42
0.21434195870799105
10
170.35381679407195
20
325.68539056980563
42
0.69535462154122496
10
173.95086511025829
20
320.88365756671777
10
174.7846024036923
20
320.43028559826547
42
0.69535462153836658
10
180.77024981245316
20
320.02111384975848
42
0.2143419587099793
10
181.1621698246208
20
322.61473652707878
42
-0.031519987104419285
10
220.27935189242797
20
297.28270573622859
42
0.21434195870794992
10
218.07298400487068
20
295.86410761382746
42
0.6953546215412173
10
220.89489533321824
20
290.56956203588913
10
221.64965467242553
20
289.99423399370767
42
0.69535462153837302
10
227.5026930556233
20
288.67615277216038
42
0.21434195870996023
10
228.28593457656319
20
291.17955298150031
42
-0.031519987104419285
10
263.07776347959486
20
260.17319301299187
42
0.21434195870797276
10
260.68070530068564
20
259.10802073817041
42
0.69535462154122585
10
262.66133643139904
20
253.44476224627982
10
263.31942689717289
20
252.76096333205248
42
0.69535462153837546
10
268.90266599591075
20
250.56486734414403
42
0.21434195870995781
10
270.05887050821656
20
252.91936750638044
42
-0.031519987104419285
10
299.70985526517262
20
216.96544115810357
42
0.21434195870795766
10
297.17829180697271
20
216.27866146618541
42
0.69535462154121974
10
298.27121842505312
20
210.37943203943709
10
298.8172149346475
20
209.60318992015229
42
0.69535462153836314
10
303.99978835658493
20
206.58055379451463
42
0.21434195870995243
10
305.50185540644213
20
208.7309664214261
42
-0.031519987104419063
10
329.31700206562851
20
168.67220325384977
42
0.21434195870797354
10
326.71027102994452
20
168.37991367872604
42
0.69535462154122485
10
326.88987586178587
20
162.382986254928
10
327.31098071978101
20
161.5324953879495
42
0.69535462153838368
10
331.9714133364534
20
157.75416715349999
42
0.21434195870995992
10
333.7841357453056
20
159.65008839571811
42
-0.031519987104419729
10
351.20523745381388
20
116.42543186525594
42
0.21434195870796557
10
348.58443840675955
20
116.53448342683431
42
0.6953546215412113
10
347.84651166732937
20
110.58042090204037
10
348.13285453276586
20
109.67561607244747
42
0.69535462153837879
10
352.16190975363793
20
105.23015654063919
42
0.21434195870996745
10
354.24279884461293
20
106.82714761115305
42
-0.031519987104418397
10
364.86151974383597
20
61.449747031362023
42
0.21434195870778686
10
362.2880819937896
20
61.957583653465633
42
0.69535462154120964
10
360.64992006042246
20
56.185944206827557
10
360.79478929922738
20
55.248033272948931
42
0.69535462153836858
10
364.09802948479074
20
50.239640247410577
42
0.21434195870974104
10
366.39831098127809
20
51.500269029071042
42
-0.03151998710441551
10
369.96575725334856
20
5.0337322094423538
42
0.2143419587077548
10
367.50000000002467
20
5.928450632072499
42
0.69535462154121697
10
364.99999999999704
20
0.47451660040475296
10
364.99999999999824
20
-0.4745166004059248
42
0.69535462153838534
10
367.49999999999994
20
-5.9284506320727974
42
0.21434195870973985
10
369.96575725335015
20
-5.0337322094442705
42
-0.03151998710441662
0
LWPOLYLINE
5
101
100
AcDbEntity
8
0
100
AcDbPolyline
90
6
70
1
43
0.0
10
268.90266599592837
20
-250.56486734416151
42
0.69535462154121874
10
263.31942689717124
20
-252.76096333205257
10
262.66133643139904
20
-253.44476224628156
42
0.69535462153837646
10
260.68070530066757
20
-259.10802073815347
42
0.69540442892502619
10
266.26393613903207
20
-256.91149509461331
42
0.00064082830668153051
10
266.92160520844186
20
-256.22813403868969
42
0.69540442892233234
0
CIRCLE
5
102
100
AcDbEntity
8
0
100
AcDbCircle
10
284.60417386893562
20
-273.90776589279233
30
0
40
8.0000000000000071
210
0
220
-0
230
1
0
ENDSEC
0
SECTION
2
OBJECTS
0
DICTIONARY
5
C
100
AcDbDictionary
3
ACAD_GROUP
350
D
3
ACAD_MLINESTYLE
350
17
0
DICTIONARY
5
D
100
AcDbDictionary
0
DICTIONARY
5
1A
330
C
100
AcDbDictionary
0
DICTIONARY
5
17
100
AcDbDictionary
0
ENDSEC
0
EOF
