  0
SECTION
  2
HEADER
  9
$ANGBASE
  50
0.0
  9
$ANGDIR
  70
1
  9
$MEASUREMENT
  70
1
  0
ENDSEC
  0
SECTION
  2
TABLES
  0
TABLE
  2
LTYPE
  70
4
  0
LTYPE
  5
40F
  2
CONTINUOUS
  70
0
  3
Solid line
  72
65
  73
0
  40
0.0
  0
LTYPE
  5
410
  2
DASHDOT
 70
0
  3
Dash Dot ____ _ ____ _
 72
65
 73
4
 40
2.0
 49
1.25
 49
-0.25
 49
0.25
 49
-0.25
  0
LTYPE
  5
411
  2
DASHED
 70
0
  3
Dashed __ __ __ __ __
 72
65
 73
2
 40
0.75
 49
0.5
 49
-0.25
  0
LTYPE
  5
43B
  2
DOTTED
 70
0
  3
Dotted .  .  .  .
 72
65
 73
2
 40
0.2
 49
0.0
 49
-0.2
  0
ENDTAB
  0
TABLE
  2
STYLE
  70
4
  0
STYLE
  2
KICAD
  70
0
  40
0
  41
1
  42
1
  50
0
  71
0
  3
isocp.shx
  0
STYLE
  2
KICADB
  70
0
  40
0
  41
1
  42
1
  50
0
  71
0
  3
isocp.shx
  0
STYLE
  2
KICADI
  70
0
  40
0
  41
1
  42
1
  50
15
  71
0
  3
isocp.shx
  0
STYLE
  2
KICADBI
  70
0
  40
0
  41
1
  42
1
  50
15
  71
0
  3
isocp.shx
  0
ENDTAB
  0
TABLE
  2
LAYER
  70
1
  0
LAYER
  2
BLACK
  70
0
  62
7
  6
CONTINUOUS
  0
ENDTAB
  0
ENDSEC
  0
SECTION
  2
ENTITIES
0
LINE
8
BLACK
6
CONTINUOUS
10
94.4713419999999928
20
-58.8780599999999978
11
94.5843799999999959
21
-58.9433239999999969
0
LINE
8
BLACK
6
CONTINUOUS
10
94.5843799999999959
20
-58.9433239999999969
11
94.6033959999999894
21
-58.9600000000000009
0
LINE
8
BLACK
6
CONTINUOUS
10
94.6033959999999894
20
-58.9600000000000009
11
94.7650000000000006
21
-58.9600000000000009
0
LINE
8
BLACK
6
CONTINUOUS
10
94.7650000000000006
20
-58.9600000000000009
11
94.7650000000000006
21
-59.136569999999999
0
LINE
8
BLACK
6
CONTINUOUS
10
94.7650000000000006
20
-59.136569999999999
11
94.7725149999999985
21
-59.1415919999999957
0
LINE
8
BLACK
6
CONTINUOUS
10
94.7725149999999985
20
-59.1415919999999957
11
94.8834079999999886
21
-59.2524850000000001
0
LINE
8
BLACK
6
CONTINUOUS
10
94.8834079999999886
20
-59.2524850000000001
11
94.9705369999999931
21
-59.3828829999999996
0
LINE
8
BLACK
6
CONTINUOUS
10
94.9705369999999931
20
-59.3828829999999996
11
95.0305520000000001
21
-59.5277719999999988
0
LINE
8
BLACK
6
CONTINUOUS
10
95.0305520000000001
20
-59.5277719999999988
11
95.0611479999999887
21
-59.6815859999999958
0
LINE
8
BLACK
6
CONTINUOUS
10
95.0611479999999887
20
-59.6815859999999958
11
95.0611479999999887
21
-59.8384140000000002
0
LINE
8
BLACK
6
CONTINUOUS
10
95.0611479999999887
20
-59.8384140000000002
11
95.0305520000000001
21
-59.9922279999999972
0
LINE
8
BLACK
6
CONTINUOUS
10
95.0305520000000001
20
-59.9922279999999972
11
94.9705369999999931
21
-60.1371169999999964
0
LINE
8
BLACK
6
CONTINUOUS
10
94.9705369999999931
20
-60.1371169999999964
11
94.8834079999999886
21
-60.267514999999996
0
LINE
8
BLACK
6
CONTINUOUS
10
94.8834079999999886
20
-60.267514999999996
11
94.7725149999999985
21
-60.3784080000000003
0
LINE
8
BLACK
6
CONTINUOUS
10
94.7725149999999985
20
-60.3784080000000003
11
94.7650000000000006
21
-60.3834289999999996
0
LINE
8
BLACK
6
CONTINUOUS
10
94.7650000000000006
20
-60.3834289999999996
11
94.7650000000000006
21
-60.5599999999999952
0
LINE
8
BLACK
6
CONTINUOUS
10
94.7650000000000006
20
-60.5599999999999952
11
91.7650000000000006
21
-60.5599999999999952
0
LINE
8
BLACK
6
CONTINUOUS
10
91.7650000000000006
20
-60.5599999999999952
11
91.7650000000000006
21
-59.8599999999999994
0
LINE
8
BLACK
6
CONTINUOUS
10
91.7650000000000006
20
-59.8599999999999994
11
91.3471069999999941
21
-59.8599999999999994
0
LINE
8
BLACK
6
CONTINUOUS
10
91.3471069999999941
20
-59.8599999999999994
11
85.5
21
-65.707105999999996
0
LINE
8
BLACK
6
CONTINUOUS
10
85.5
20
-65.707105999999996
11
85.5
21
-77.2928929999999923
0
LINE
8
BLACK
6
CONTINUOUS
10
85.5
20
-77.2928929999999923
11
90.7071069999999935
21
-82.5
0
LINE
8
BLACK
6
CONTINUOUS
10
90.7071069999999935
20
-82.5
11
112.7928939999999898
21
-82.5
0
LINE
8
BLACK
6
CONTINUOUS
10
112.7928939999999898
20
-82.5
11
116.1636809999999969
21
-79.129210999999998
0
LINE
8
BLACK
6
CONTINUOUS
10
116.1636809999999969
20
-79.129210999999998
11
116.0739829999999984
21
-78.9949670000000026
0
LINE
8
BLACK
6
CONTINUOUS
10
116.0739829999999984
20
-78.9949670000000026
11
115.9952129999999926
21
-78.8047990000000027
0
LINE
8
BLACK
6
CONTINUOUS
10
115.9952129999999926
20
-78.8047990000000027
11
115.955055999999999
21
-78.6029180000000025
0
LINE
8
BLACK
6
CONTINUOUS
10
115.955055999999999
20
-78.6029180000000025
11
115.955055999999999
21
-78.3970819999999975
0
LINE
8
BLACK
6
CONTINUOUS
10
115.955055999999999
20
-78.3970819999999975
11
115.9952129999999926
21
-78.1952009999999973
0
LINE
8
BLACK
6
CONTINUOUS
10
115.9952129999999926
20
-78.1952009999999973
11
116.0739829999999984
21
-78.0050329999999974
0
LINE
8
BLACK
6
CONTINUOUS
10
116.0739829999999984
20
-78.0050329999999974
11
116.1883389999999991
21
-77.8338869999999901
0
LINE
8
BLACK
6
CONTINUOUS
10
116.1883389999999991
20
-77.8338869999999901
11
116.3338869999999901
21
-77.6883389999999991
0
LINE
8
BLACK
6
CONTINUOUS
10
116.3338869999999901
20
-77.6883389999999991
11
116.5050329999999974
21
-77.5739829999999984
0
LINE
8
BLACK
6
CONTINUOUS
10
116.5050329999999974
20
-77.5739829999999984
11
116.6952009999999973
21
-77.4952129999999926
0
LINE
8
BLACK
6
CONTINUOUS
10
116.6952009999999973
20
-77.4952129999999926
11
116.8970819999999975
21
-77.455055999999999
0
LINE
8
BLACK
6
CONTINUOUS
10
116.8970819999999975
20
-77.455055999999999
11
117.1029179999999883
21
-77.455055999999999
0
LINE
8
BLACK
6
CONTINUOUS
10
117.1029179999999883
20
-77.455055999999999
11
117.3047989999999885
21
-77.4952129999999926
0
LINE
8
BLACK
6
CONTINUOUS
10
117.3047989999999885
20
-77.4952129999999926
11
117.4949669999999884
21
-77.5739829999999984
0
LINE
8
BLACK
6
CONTINUOUS
10
117.4949669999999884
20
-77.5739829999999984
11
117.6661129999999957
21
-77.6883389999999991
0
LINE
8
BLACK
6
CONTINUOUS
10
117.6661129999999957
20
-77.6883389999999991
11
117.8116610000000009
21
-77.8338869999999901
0
LINE
8
BLACK
6
CONTINUOUS
10
117.8116610000000009
20
-77.8338869999999901
11
117.9260170000000016
21
-78.0050329999999974
0
LINE
8
BLACK
6
CONTINUOUS
10
117.9260170000000016
20
-78.0050329999999974
11
118.0047869999999932
21
-78.1952009999999973
0
LINE
8
BLACK
6
CONTINUOUS
10
118.0047869999999932
20
-78.1952009999999973
11
118.044944000000001
21
-78.3970819999999975
0
LINE
8
BLACK
6
CONTINUOUS
10
118.044944000000001
20
-78.3970819999999975
11
118.044944000000001
21
-78.6029180000000025
0
LINE
8
BLACK
6
CONTINUOUS
10
118.044944000000001
20
-78.6029180000000025
11
118.0047869999999932
21
-78.8047990000000027
0
LINE
8
BLACK
6
CONTINUOUS
10
118.0047869999999932
20
-78.8047990000000027
11
117.9260170000000016
21
-78.9949670000000026
0
LINE
8
BLACK
6
CONTINUOUS
10
117.9260170000000016
20
-78.9949670000000026
11
117.8116610000000009
21
-79.1661129999999957
0
LINE
8
BLACK
6
CONTINUOUS
10
117.8116610000000009
20
-79.1661129999999957
11
117.6661129999999957
21
-79.3116610000000009
0
LINE
8
BLACK
6
CONTINUOUS
10
117.6661129999999957
20
-79.3116610000000009
11
117.4949669999999884
21
-79.4260170000000016
0
LINE
8
BLACK
6
CONTINUOUS
10
117.4949669999999884
20
-79.4260170000000016
11
117.3047989999999885
21
-79.5047869999999932
0
LINE
8
BLACK
6
CONTINUOUS
10
117.3047989999999885
20
-79.5047869999999932
11
117.1768730000000005
21
-79.5302329999999955
0
LINE
8
BLACK
6
CONTINUOUS
10
117.1768730000000005
20
-79.5302329999999955
11
113.3535529999999909
21
-83.3535529999999909
0
LINE
8
BLACK
6
CONTINUOUS
10
113.3535529999999909
20
-83.3535529999999909
11
113.304395999999997
21
-83.3966609999999946
0
LINE
8
BLACK
6
CONTINUOUS
10
113.304395999999997
20
-83.3966609999999946
11
113.3043809999999922
21
-83.3966769999999968
0
LINE
8
BLACK
6
CONTINUOUS
10
113.3043809999999922
20
-83.3966769999999968
11
113.1913419999999917
21
-83.4619399999999985
0
LINE
8
BLACK
6
CONTINUOUS
10
113.1913419999999917
20
-83.4619399999999985
11
113.0652630000000016
21
-83.4957229999999981
0
LINE
8
BLACK
6
CONTINUOUS
10
113.0652630000000016
20
-83.4957229999999981
11
113.0652479999999969
21
-83.4957229999999981
0
LINE
8
BLACK
6
CONTINUOUS
10
113.0652479999999969
20
-83.4957229999999981
11
113.
21
-83.5
0
LINE
8
BLACK
6
CONTINUOUS
10
113.
20
-83.5
11
90.5
21
-83.5
0
LINE
8
BLACK
6
CONTINUOUS
10
90.5
20
-83.5
11
90.4347519999999889
21
-83.4957229999999981
0
LINE
8
BLACK
6
CONTINUOUS
10
90.4347519999999889
20
-83.4957229999999981
11
90.4347369999999984
21
-83.4957229999999981
0
LINE
8
BLACK
6
CONTINUOUS
10
90.4347369999999984
20
-83.4957229999999981
11
90.3353010000000012
21
-83.4690789999999936
0
LINE
8
BLACK
6
CONTINUOUS
10
90.3353010000000012
20
-83.4690789999999936
11
90.3086579999999941
21
-83.4619399999999985
0
LINE
8
BLACK
6
CONTINUOUS
10
90.3086579999999941
20
-83.4619399999999985
11
90.1956189999999935
21
-83.3966769999999968
0
LINE
8
BLACK
6
CONTINUOUS
10
90.1956189999999935
20
-83.3966769999999968
11
90.1956109999999995
21
-83.3966690000000028
0
LINE
8
BLACK
6
CONTINUOUS
10
90.1956109999999995
20
-83.3966690000000028
11
90.1464469999999949
21
-83.3535540000000026
0
LINE
8
BLACK
6
CONTINUOUS
10
90.1464469999999949
20
-83.3535540000000026
11
84.6464469999999949
21
-77.8535529999999909
0
LINE
8
BLACK
6
CONTINUOUS
10
84.6464469999999949
20
-77.8535529999999909
11
84.6033379999999937
21
-77.804395999999997
0
LINE
8
BLACK
6
CONTINUOUS
10
84.6033379999999937
20
-77.804395999999997
11
84.6033230000000032
21
-77.8043809999999922
0
LINE
8
BLACK
6
CONTINUOUS
10
84.6033230000000032
20
-77.8043809999999922
11
84.5380600000000015
21
-77.6913419999999917
0
LINE
8
BLACK
6
CONTINUOUS
10
84.5380600000000015
20
-77.6913419999999917
11
84.506613999999999
21
-77.5739829999999984
0
LINE
8
BLACK
6
CONTINUOUS
10
84.506613999999999
20
-77.5739829999999984
11
84.5042770000000019
21
-77.5652630000000016
0
LINE
8
BLACK
6
CONTINUOUS
10
84.5042770000000019
20
-77.5652630000000016
11
84.5042770000000019
21
-77.5652469999999994
0
LINE
8
BLACK
6
CONTINUOUS
10
84.5042770000000019
20
-77.5652469999999994
11
84.5
21
-77.5
0
LINE
8
BLACK
6
CONTINUOUS
10
84.5
20
-77.5
11
84.5
21
-65.5
0
LINE
8
BLACK
6
CONTINUOUS
10
84.5
20
-65.5
11
84.5042770000000019
21
-65.4347520000000031
0
LINE
8
BLACK
6
CONTINUOUS
10
84.5042770000000019
20
-65.4347520000000031
11
84.5042770000000019
21
-65.4347369999999984
0
LINE
8
BLACK
6
CONTINUOUS
10
84.5042770000000019
20
-65.4347369999999984
11
84.5380600000000015
21
-65.3086579999999941
0
LINE
8
BLACK
6
CONTINUOUS
10
84.5380600000000015
20
-65.3086579999999941
11
84.6033230000000032
21
-65.1956189999999935
0
LINE
8
BLACK
6
CONTINUOUS
10
84.6033230000000032
20
-65.1956189999999935
11
84.6033379999999937
21
-65.1956029999999913
0
LINE
8
BLACK
6
CONTINUOUS
10
84.6033379999999937
20
-65.1956029999999913
11
84.6464469999999949
21
-65.1464469999999949
0
LINE
8
BLACK
6
CONTINUOUS
10
84.6464469999999949
20
-65.1464469999999949
11
90.786445999999998
21
-59.0064469999999943
0
LINE
8
BLACK
6
CONTINUOUS
10
90.786445999999998
20
-59.0064469999999943
11
90.8356100000000026
21
-58.9633309999999966
0
LINE
8
BLACK
6
CONTINUOUS
10
90.8356100000000026
20
-58.9633309999999966
11
90.8356189999999941
21
-58.9633229999999955
0
LINE
8
BLACK
6
CONTINUOUS
10
90.8356189999999941
20
-58.9633229999999955
11
90.9486579999999947
21
-58.8980599999999939
0
LINE
8
BLACK
6
CONTINUOUS
10
90.9486579999999947
20
-58.8980599999999939
11
90.9523080000000022
21
-58.8970819999999975
0
LINE
8
BLACK
6
CONTINUOUS
10
90.9523080000000022
20
-58.8970819999999975
11
91.0747369999999989
21
-58.8642769999999942
0
LINE
8
BLACK
6
CONTINUOUS
10
91.0747369999999989
20
-58.8642769999999942
11
91.0747519999999895
21
-58.8642769999999942
0
LINE
8
BLACK
6
CONTINUOUS
10
91.0747519999999895
20
-58.8642769999999942
11
91.1400000000000006
21
-58.8599999999999994
0
LINE
8
BLACK
6
CONTINUOUS
10
91.1400000000000006
20
-58.8599999999999994
11
94.1560580000000016
21
-58.8599999999999994
0
LINE
8
BLACK
6
CONTINUOUS
10
94.1560580000000016
20
-58.8599999999999994
11
94.2147369999999995
21
-58.8442769999999982
0
LINE
8
BLACK
6
CONTINUOUS
10
94.2147369999999995
20
-58.8442769999999982
11
94.3452630000000028
21
-58.8442769999999982
0
LINE
8
BLACK
6
CONTINUOUS
10
94.3452630000000028
20
-58.8442769999999982
11
94.4713419999999928
21
-58.8780599999999978
0
LINE
8
BLACK
6
CONTINUOUS
10
94.4713419999999928
20
-61.418059999999997
11
94.5843799999999959
21
-61.4833239999999961
0
LINE
8
BLACK
6
CONTINUOUS
10
94.5843799999999959
20
-61.4833239999999961
11
94.6033959999999894
21
-61.5
0
LINE
8
BLACK
6
CONTINUOUS
10
94.6033959999999894
20
-61.5
11
94.7650000000000006
21
-61.5
0
LINE
8
BLACK
6
CONTINUOUS
10
94.7650000000000006
20
-61.5
11
94.7650000000000006
21
-61.6765699999999981
0
LINE
8
BLACK
6
CONTINUOUS
10
94.7650000000000006
20
-61.6765699999999981
11
94.7725149999999985
21
-61.6815919999999949
0
LINE
8
BLACK
6
CONTINUOUS
10
94.7725149999999985
20
-61.6815919999999949
11
94.8834079999999886
21
-61.7924849999999992
0
LINE
8
BLACK
6
CONTINUOUS
10
94.8834079999999886
20
-61.7924849999999992
11
94.9705369999999931
21
-61.9228829999999988
0
LINE
8
BLACK
6
CONTINUOUS
10
94.9705369999999931
20
-61.9228829999999988
11
95.0305520000000001
21
-62.0677719999999979
0
LINE
8
BLACK
6
CONTINUOUS
10
95.0305520000000001
20
-62.0677719999999979
11
95.0611479999999887
21
-62.221585999999995
0
LINE
8
BLACK
6
CONTINUOUS
10
95.0611479999999887
20
-62.221585999999995
11
95.0611479999999887
21
-62.3784139999999994
0
LINE
8
BLACK
6
CONTINUOUS
10
95.0611479999999887
20
-62.3784139999999994
11
95.0305520000000001
21
-62.5322279999999964
0
LINE
8
BLACK
6
CONTINUOUS
10
95.0305520000000001
20
-62.5322279999999964
11
94.9705369999999931
21
-62.6771169999999955
0
LINE
8
BLACK
6
CONTINUOUS
10
94.9705369999999931
20
-62.6771169999999955
11
94.8834079999999886
21
-62.8075149999999951
0
LINE
8
BLACK
6
CONTINUOUS
10
94.8834079999999886
20
-62.8075149999999951
11
94.7725149999999985
21
-62.9184079999999994
0
LINE
8
BLACK
6
CONTINUOUS
10
94.7725149999999985
20
-62.9184079999999994
11
94.7650000000000006
21
-62.9234289999999987
0
LINE
8
BLACK
6
CONTINUOUS
10
94.7650000000000006
20
-62.9234289999999987
11
94.7650000000000006
21
-63.0999999999999943
0
LINE
8
BLACK
6
CONTINUOUS
10
94.7650000000000006
20
-63.0999999999999943
11
91.7650000000000006
21
-63.0999999999999943
0
LINE
8
BLACK
6
CONTINUOUS
10
91.7650000000000006
20
-63.0999999999999943
11
91.7650000000000006
21
-62.4421059999999954
0
LINE
8
BLACK
6
CONTINUOUS
10
91.7650000000000006
20
-62.4421059999999954
11
88.
21
-66.207105999999996
0
LINE
8
BLACK
6
CONTINUOUS
10
88.
20
-66.207105999999996
11
88.
21
-76.7928929999999923
0
LINE
8
BLACK
6
CONTINUOUS
10
88.
20
-76.7928929999999923
11
91.7071069999999935
21
-80.5
0
LINE
8
BLACK
6
CONTINUOUS
10
91.7071069999999935
20
-80.5
11
111.2728939999999938
21
-80.5
0
LINE
8
BLACK
6
CONTINUOUS
10
111.2728939999999938
20
-80.5
11
114.5
21
-77.2728929999999963
0
LINE
8
BLACK
6
CONTINUOUS
10
114.5
20
-77.2728929999999963
11
114.5
21
-76.
0
LINE
8
BLACK
6
CONTINUOUS
10
114.5
20
-76.
11
114.5042779999999993
21
-75.9347369999999984
0
LINE
8
BLACK
6
CONTINUOUS
10
114.5042779999999993
20
-75.9347369999999984
11
114.5380600000000015
21
-75.8086579999999941
0
LINE
8
BLACK
6
CONTINUOUS
10
114.5380600000000015
20
-75.8086579999999941
11
114.603322999999989
21
-75.6956189999999935
0
LINE
8
BLACK
6
CONTINUOUS
10
114.603322999999989
20
-75.6956189999999935
11
114.6956189999999935
21
-75.6033230000000032
0
LINE
8
BLACK
6
CONTINUOUS
10
114.6956189999999935
20
-75.6033230000000032
11
114.8086579999999941
21
-75.5380600000000015
0
LINE
8
BLACK
6
CONTINUOUS
10
114.8086579999999941
20
-75.5380600000000015
11
114.9347369999999984
21
-75.5042779999999993
0
LINE
8
BLACK
6
CONTINUOUS
10
114.9347369999999984
20
-75.5042779999999993
11
115.
21
-75.5
0
LINE
8
BLACK
6
CONTINUOUS
10
115.
20
-75.5
11
116.0594989999999882
21
-75.5
0
LINE
8
BLACK
6
CONTINUOUS
10
116.0594989999999882
20
-75.5
11
116.0739829999999984
21
-75.4650329999999911
0
LINE
8
BLACK
6
CONTINUOUS
10
116.0739829999999984
20
-75.4650329999999911
11
116.1883389999999991
21
-75.293886999999998
0
LINE
8
BLACK
6
CONTINUOUS
10
116.1883389999999991
20
-75.293886999999998
11
116.3338869999999901
21
-75.1483389999999929
0
LINE
8
BLACK
6
CONTINUOUS
10
116.3338869999999901
20
-75.1483389999999929
11
116.5050329999999974
21
-75.0339829999999921
0
LINE
8
BLACK
6
CONTINUOUS
10
116.5050329999999974
20
-75.0339829999999921
11
116.6952009999999973
21
-74.9552130000000005
0
LINE
8
BLACK
6
CONTINUOUS
10
116.6952009999999973
20
-74.9552130000000005
11
116.8970819999999975
21
-74.9150559999999928
0
LINE
8
BLACK
6
CONTINUOUS
10
116.8970819999999975
20
-74.9150559999999928
11
117.1029179999999883
21
-74.9150559999999928
0
LINE
8
BLACK
6
CONTINUOUS
10
117.1029179999999883
20
-74.9150559999999928
11
117.3047989999999885
21
-74.9552130000000005
0
LINE
8
BLACK
6
CONTINUOUS
10
117.3047989999999885
20
-74.9552130000000005
11
117.4949669999999884
21
-75.0339829999999921
0
LINE
8
BLACK
6
CONTINUOUS
10
117.4949669999999884
20
-75.0339829999999921
11
117.6661129999999957
21
-75.1483389999999929
0
LINE
8
BLACK
6
CONTINUOUS
10
117.6661129999999957
20
-75.1483389999999929
11
117.8116610000000009
21
-75.293886999999998
0
LINE
8
BLACK
6
CONTINUOUS
10
117.8116610000000009
20
-75.293886999999998
11
117.9260170000000016
21
-75.4650329999999911
0
LINE
8
BLACK
6
CONTINUOUS
10
117.9260170000000016
20
-75.4650329999999911
11
118.0047869999999932
21
-75.655200999999991
0
LINE
8
BLACK
6
CONTINUOUS
10
118.0047869999999932
20
-75.655200999999991
11
118.044944000000001
21
-75.8570819999999912
0
LINE
8
BLACK
6
CONTINUOUS
10
118.044944000000001
20
-75.8570819999999912
11
118.044944000000001
21
-76.0629179999999963
0
LINE
8
BLACK
6
CONTINUOUS
10
118.044944000000001
20
-76.0629179999999963
11
118.0047869999999932
21
-76.2647989999999965
0
LINE
8
BLACK
6
CONTINUOUS
10
118.0047869999999932
20
-76.2647989999999965
11
117.9260170000000016
21
-76.4549669999999963
0
LINE
8
BLACK
6
CONTINUOUS
10
117.9260170000000016
20
-76.4549669999999963
11
117.8116610000000009
21
-76.6261129999999895
0
LINE
8
BLACK
6
CONTINUOUS
10
117.8116610000000009
20
-76.6261129999999895
11
117.6661129999999957
21
-76.7716609999999946
0
LINE
8
BLACK
6
CONTINUOUS
10
117.6661129999999957
20
-76.7716609999999946
11
117.4949669999999884
21
-76.8860169999999954
0
LINE
8
BLACK
6
CONTINUOUS
10
117.4949669999999884
20
-76.8860169999999954
11
117.3047989999999885
21
-76.9647870000000012
0
LINE
8
BLACK
6
CONTINUOUS
10
117.3047989999999885
20
-76.9647870000000012
11
117.1029179999999883
21
-77.0049439999999947
0
LINE
8
BLACK
6
CONTINUOUS
10
117.1029179999999883
20
-77.0049439999999947
11
116.8970819999999975
21
-77.0049439999999947
0
LINE
8
BLACK
6
CONTINUOUS
10
116.8970819999999975
20
-77.0049439999999947
11
116.6952009999999973
21
-76.9647870000000012
0
LINE
8
BLACK
6
CONTINUOUS
10
116.6952009999999973
20
-76.9647870000000012
11
116.5050329999999974
21
-76.8860169999999954
0
LINE
8
BLACK
6
CONTINUOUS
10
116.5050329999999974
20
-76.8860169999999954
11
116.3338869999999901
21
-76.7716609999999946
0
LINE
8
BLACK
6
CONTINUOUS
10
116.3338869999999901
20
-76.7716609999999946
11
116.1883389999999991
21
-76.6261129999999895
0
LINE
8
BLACK
6
CONTINUOUS
10
116.1883389999999991
20
-76.6261129999999895
11
116.1040729999999996
21
-76.5
0
LINE
8
BLACK
6
CONTINUOUS
10
116.1040729999999996
20
-76.5
11
115.5
21
-76.5
0
LINE
8
BLACK
6
CONTINUOUS
10
115.5
20
-76.5
11
115.5
21
-77.4799999999999898
0
LINE
8
BLACK
6
CONTINUOUS
10
115.5
20
-77.4799999999999898
11
115.4957229999999981
21
-77.5452470000000034
0
LINE
8
BLACK
6
CONTINUOUS
10
115.4957229999999981
20
-77.5452470000000034
11
115.4957229999999981
21
-77.5452629999999914
0
LINE
8
BLACK
6
CONTINUOUS
10
115.4957229999999981
20
-77.5452629999999914
11
115.4880269999999882
21
-77.5739829999999984
0
LINE
8
BLACK
6
CONTINUOUS
10
115.4880269999999882
20
-77.5739829999999984
11
115.4619399999999985
21
-77.6713419999999957
0
LINE
8
BLACK
6
CONTINUOUS
10
115.4619399999999985
20
-77.6713419999999957
11
115.3966769999999968
21
-77.7843809999999962
0
LINE
8
BLACK
6
CONTINUOUS
10
115.3966769999999968
20
-77.7843809999999962
11
115.3966609999999946
21
-77.784396000000001
0
LINE
8
BLACK
6
CONTINUOUS
10
115.3966609999999946
20
-77.784396000000001
11
115.3535539999999884
21
-77.8335529999999949
0
LINE
8
BLACK
6
CONTINUOUS
10
115.3535539999999884
20
-77.8335529999999949
11
111.8335529999999949
21
-81.3535529999999909
0
LINE
8
BLACK
6
CONTINUOUS
10
111.8335529999999949
20
-81.3535529999999909
11
111.784396000000001
21
-81.3966609999999946
0
LINE
8
BLACK
6
CONTINUOUS
10
111.784396000000001
20
-81.3966609999999946
11
111.7843809999999962
21
-81.3966769999999968
0
LINE
8
BLACK
6
CONTINUOUS
10
111.7843809999999962
20
-81.3966769999999968
11
111.6713419999999957
21
-81.4619399999999985
0
LINE
8
BLACK
6
CONTINUOUS
10
111.6713419999999957
20
-81.4619399999999985
11
111.5452629999999914
21
-81.4957229999999981
0
LINE
8
BLACK
6
CONTINUOUS
10
111.5452629999999914
20
-81.4957229999999981
11
111.5452480000000008
21
-81.4957229999999981
0
LINE
8
BLACK
6
CONTINUOUS
10
111.5452480000000008
20
-81.4957229999999981
11
111.4799999999999898
21
-81.5
0
LINE
8
BLACK
6
CONTINUOUS
10
111.4799999999999898
20
-81.5
11
91.5
21
-81.5
0
LINE
8
BLACK
6
CONTINUOUS
10
91.5
20
-81.5
11
91.4347519999999889
21
-81.4957229999999981
0
LINE
8
BLACK
6
CONTINUOUS
10
91.4347519999999889
20
-81.4957229999999981
11
91.4347369999999984
21
-81.4957229999999981
0
LINE
8
BLACK
6
CONTINUOUS
10
91.4347369999999984
20
-81.4957229999999981
11
91.3086579999999941
21
-81.4619399999999985
0
LINE
8
BLACK
6
CONTINUOUS
10
91.3086579999999941
20
-81.4619399999999985
11
91.1956189999999935
21
-81.3966769999999968
0
LINE
8
BLACK
6
CONTINUOUS
10
91.1956189999999935
20
-81.3966769999999968
11
91.1956100000000021
21
-81.3966679999999911
0
LINE
8
BLACK
6
CONTINUOUS
10
91.1956100000000021
20
-81.3966679999999911
11
91.1464459999999974
21
-81.3535529999999909
0
LINE
8
BLACK
6
CONTINUOUS
10
91.1464459999999974
20
-81.3535529999999909
11
87.1464469999999949
21
-77.3535529999999909
0
LINE
8
BLACK
6
CONTINUOUS
10
87.1464469999999949
20
-77.3535529999999909
11
87.1033379999999937
21
-77.304395999999997
0
LINE
8
BLACK
6
CONTINUOUS
10
87.1033379999999937
20
-77.304395999999997
11
87.1033230000000032
21
-77.3043809999999922
0
LINE
8
BLACK
6
CONTINUOUS
10
87.1033230000000032
20
-77.3043809999999922
11
87.0380600000000015
21
-77.1913419999999917
0
LINE
8
BLACK
6
CONTINUOUS
10
87.0380600000000015
20
-77.1913419999999917
11
87.0338469999999944
21
-77.1756189999999975
0
LINE
8
BLACK
6
CONTINUOUS
10
87.0338469999999944
20
-77.1756189999999975
11
87.0042770000000019
21
-77.0652630000000016
0
LINE
8
BLACK
6
CONTINUOUS
10
87.0042770000000019
20
-77.0652630000000016
11
87.0042770000000019
21
-77.0652469999999994
0
LINE
8
BLACK
6
CONTINUOUS
10
87.0042770000000019
20
-77.0652469999999994
11
87.
21
-77.
0
LINE
8
BLACK
6
CONTINUOUS
10
87.
20
-77.
11
87.
21
-66.
0
LINE
8
BLACK
6
CONTINUOUS
10
87.
20
-66.
11
87.0042770000000019
21
-65.9347520000000031
0
LINE
8
BLACK
6
CONTINUOUS
10
87.0042770000000019
20
-65.9347520000000031
11
87.0042770000000019
21
-65.9347369999999984
0
LINE
8
BLACK
6
CONTINUOUS
10
87.0042770000000019
20
-65.9347369999999984
11
87.0380600000000015
21
-65.8086579999999941
0
LINE
8
BLACK
6
CONTINUOUS
10
87.0380600000000015
20
-65.8086579999999941
11
87.0449780000000004
21
-65.7966759999999908
0
LINE
8
BLACK
6
CONTINUOUS
10
87.0449780000000004
20
-65.7966759999999908
11
87.1033230000000032
21
-65.6956189999999935
0
LINE
8
BLACK
6
CONTINUOUS
10
87.1033230000000032
20
-65.6956189999999935
11
87.1033379999999937
21
-65.6956029999999913
0
LINE
8
BLACK
6
CONTINUOUS
10
87.1033379999999937
20
-65.6956029999999913
11
87.1464469999999949
21
-65.6464469999999949
0
LINE
8
BLACK
6
CONTINUOUS
10
87.1464469999999949
20
-65.6464469999999949
11
91.2464469999999892
21
-61.546445999999996
0
LINE
8
BLACK
6
CONTINUOUS
10
91.2464469999999892
20
-61.546445999999996
11
91.2956109999999939
21
-61.5033299999999983
0
LINE
8
BLACK
6
CONTINUOUS
10
91.2956109999999939
20
-61.5033299999999983
11
91.2956190000000021
21
-61.5033229999999946
0
LINE
8
BLACK
6
CONTINUOUS
10
91.2956190000000021
20
-61.5033229999999946
11
91.4086580000000026
21
-61.4380600000000001
0
LINE
8
BLACK
6
CONTINUOUS
10
91.4086580000000026
20
-61.4380600000000001
11
91.4353009999999955
21
-61.4309200000000004
0
LINE
8
BLACK
6
CONTINUOUS
10
91.4353009999999955
20
-61.4309200000000004
11
91.5347369999999927
21
-61.4042770000000004
0
LINE
8
BLACK
6
CONTINUOUS
10
91.5347369999999927
20
-61.4042770000000004
11
91.5347519999999975
21
-61.4042770000000004
0
LINE
8
BLACK
6
CONTINUOUS
10
91.5347519999999975
20
-61.4042770000000004
11
91.5999999999999943
21
-61.3999999999999986
0
LINE
8
BLACK
6
CONTINUOUS
10
91.5999999999999943
20
-61.3999999999999986
11
94.1560580000000016
21
-61.3999999999999986
0
LINE
8
BLACK
6
CONTINUOUS
10
94.1560580000000016
20
-61.3999999999999986
11
94.2147369999999995
21
-61.3842769999999973
0
LINE
8
BLACK
6
CONTINUOUS
10
94.2147369999999995
20
-61.3842769999999973
11
94.3452630000000028
21
-61.3842769999999973
0
LINE
8
BLACK
6
CONTINUOUS
10
94.3452630000000028
20
-61.3842769999999973
11
94.4713419999999928
21
-61.418059999999997
0
LINE
8
BLACK
6
CONTINUOUS
10
94.4713419999999928
20
-63.9580599999999961
11
94.5843799999999959
21
-64.0233240000000023
0
LINE
8
BLACK
6
CONTINUOUS
10
94.5843799999999959
20
-64.0233240000000023
11
94.6033959999999894
21
-64.039999999999992
0
LINE
8
BLACK
6
CONTINUOUS
10
94.6033959999999894
20
-64.039999999999992
11
94.7650000000000006
21
-64.039999999999992
0
LINE
8
BLACK
6
CONTINUOUS
10
94.7650000000000006
20
-64.039999999999992
11
94.7650000000000006
21
-64.2165699999999902
0
LINE
8
BLACK
6
CONTINUOUS
10
94.7650000000000006
20
-64.2165699999999902
11
94.7725149999999985
21
-64.2215920000000011
0
LINE
8
BLACK
6
CONTINUOUS
10
94.7725149999999985
20
-64.2215920000000011
11
94.8834079999999886
21
-64.3324849999999913
0
LINE
8
BLACK
6
CONTINUOUS
10
94.8834079999999886
20
-64.3324849999999913
11
94.9705369999999931
21
-64.4628829999999908
0
LINE
8
BLACK
6
CONTINUOUS
10
94.9705369999999931
20
-64.4628829999999908
11
95.0305520000000001
21
-64.6077719999999971
0
LINE
8
BLACK
6
CONTINUOUS
10
95.0305520000000001
20
-64.6077719999999971
11
95.0611479999999887
21
-64.7615859999999941
0
LINE
8
BLACK
6
CONTINUOUS
10
95.0611479999999887
20
-64.7615859999999941
11
95.0611479999999887
21
-64.9184139999999985
0
LINE
8
BLACK
6
CONTINUOUS
10
95.0611479999999887
20
-64.9184139999999985
11
95.0305520000000001
21
-65.0722279999999955
0
LINE
8
BLACK
6
CONTINUOUS
10
95.0305520000000001
20
-65.0722279999999955
11
94.9705369999999931
21
-65.2171170000000018
0
LINE
8
BLACK
6
CONTINUOUS
10
94.9705369999999931
20
-65.2171170000000018
11
94.8834079999999886
21
-65.3475150000000014
0
LINE
8
BLACK
6
CONTINUOUS
10
94.8834079999999886
20
-65.3475150000000014
11
94.7725149999999985
21
-65.4584079999999915
0
LINE
8
BLACK
6
CONTINUOUS
10
94.7725149999999985
20
-65.4584079999999915
11
94.7650000000000006
21
-65.4634289999999908
0
LINE
8
BLACK
6
CONTINUOUS
10
94.7650000000000006
20
-65.4634289999999908
11
94.7650000000000006
21
-65.6400000000000006
0
LINE
8
BLACK
6
CONTINUOUS
10
94.7650000000000006
20
-65.6400000000000006
11
91.7650000000000006
21
-65.6400000000000006
0
LINE
8
BLACK
6
CONTINUOUS
10
91.7650000000000006
20
-65.6400000000000006
11
91.7650000000000006
21
-65.5201059999999984
0
LINE
8
BLACK
6
CONTINUOUS
10
91.7650000000000006
20
-65.5201059999999984
11
90.
21
-67.285105999999999
0
LINE
8
BLACK
6
CONTINUOUS
10
90.
20
-67.285105999999999
11
90.
21
-75.6431279999999902
0
LINE
8
BLACK
6
CONTINUOUS
10
90.
20
-75.6431279999999902
11
92.8568719999999956
21
-78.5
0
LINE
8
BLACK
6
CONTINUOUS
10
92.8568719999999956
20
-78.5
11
110.2928939999999898
21
-78.5
0
LINE
8
BLACK
6
CONTINUOUS
10
110.2928939999999898
20
-78.5
11
112.5
21
-76.2928939999999898
0
LINE
8
BLACK
6
CONTINUOUS
10
112.5
20
-76.2928939999999898
11
112.5
21
-74.
0
LINE
8
BLACK
6
CONTINUOUS
10
112.5
20
-74.
11
112.5042770000000019
21
-73.9347520000000031
0
LINE
8
BLACK
6
CONTINUOUS
10
112.5042770000000019
20
-73.9347520000000031
11
112.5042770000000019
21
-73.9347369999999984
0
LINE
8
BLACK
6
CONTINUOUS
10
112.5042770000000019
20
-73.9347369999999984
11
112.5380600000000015
21
-73.8086579999999941
0
LINE
8
BLACK
6
CONTINUOUS
10
112.5380600000000015
20
-73.8086579999999941
11
112.5583279999999888
21
-73.7735529999999926
0
LINE
8
BLACK
6
CONTINUOUS
10
112.5583279999999888
20
-73.7735529999999926
11
112.603322999999989
21
-73.6956189999999935
0
LINE
8
BLACK
6
CONTINUOUS
10
112.603322999999989
20
-73.6956189999999935
11
112.6033379999999937
21
-73.6956029999999913
0
LINE
8
BLACK
6
CONTINUOUS
10
112.6033379999999937
20
-73.6956029999999913
11
112.6464469999999949
21
-73.6464469999999949
0
LINE
8
BLACK
6
CONTINUOUS
10
112.6464469999999949
20
-73.6464469999999949
11
113.2264469999999932
21
-73.0664469999999966
0
LINE
8
BLACK
6
CONTINUOUS
10
113.2264469999999932
20
-73.0664469999999966
11
113.2756029999999896
21
-73.0233379999999954
0
LINE
8
BLACK
6
CONTINUOUS
10
113.2756029999999896
20
-73.0233379999999954
11
113.2756189999999918
21
-73.0233229999999907
0
LINE
8
BLACK
6
CONTINUOUS
10
113.2756189999999918
20
-73.0233229999999907
11
113.3886579999999924
21
-72.9580600000000032
0
LINE
8
BLACK
6
CONTINUOUS
10
113.3886579999999924
20
-72.9580600000000032
11
113.5147369999999967
21
-72.9242770000000036
0
LINE
8
BLACK
6
CONTINUOUS
10
113.5147369999999967
20
-72.9242770000000036
11
113.5147520000000014
21
-72.9242770000000036
0
LINE
8
BLACK
6
CONTINUOUS
10
113.5147520000000014
20
-72.9242770000000036
11
113.5799999999999983
21
-72.9200000000000017
0
LINE
8
BLACK
6
CONTINUOUS
10
113.5799999999999983
20
-72.9200000000000017
11
116.0773459999999915
21
-72.9200000000000017
0
LINE
8
BLACK
6
CONTINUOUS
10
116.0773459999999915
20
-72.9200000000000017
11
116.1883389999999991
21
-72.7538869999999918
0
LINE
8
BLACK
6
CONTINUOUS
10
116.1883389999999991
20
-72.7538869999999918
11
116.3338869999999901
21
-72.6083390000000009
0
LINE
8
BLACK
6
CONTINUOUS
10
116.3338869999999901
20
-72.6083390000000009
11
116.5050329999999974
21
-72.4939830000000001
0
LINE
8
BLACK
6
CONTINUOUS
10
116.5050329999999974
20
-72.4939830000000001
11
116.6952009999999973
21
-72.4152129999999943
0
LINE
8
BLACK
6
CONTINUOUS
10
116.6952009999999973
20
-72.4152129999999943
11
116.8970819999999975
21
-72.3750560000000007
0
LINE
8
BLACK
6
CONTINUOUS
10
116.8970819999999975
20
-72.3750560000000007
11
117.1029179999999883
21
-72.3750560000000007
0
LINE
8
BLACK
6
CONTINUOUS
10
117.1029179999999883
20
-72.3750560000000007
11
117.3047989999999885
21
-72.4152129999999943
0
LINE
8
BLACK
6
CONTINUOUS
10
117.3047989999999885
20
-72.4152129999999943
11
117.4949669999999884
21
-72.4939830000000001
0
LINE
8
BLACK
6
CONTINUOUS
10
117.4949669999999884
20
-72.4939830000000001
11
117.6661129999999957
21
-72.6083390000000009
0
LINE
8
BLACK
6
CONTINUOUS
10
117.6661129999999957
20
-72.6083390000000009
11
117.8116610000000009
21
-72.7538869999999918
0
LINE
8
BLACK
6
CONTINUOUS
10
117.8116610000000009
20
-72.7538869999999918
11
117.9260170000000016
21
-72.9250329999999991
0
LINE
8
BLACK
6
CONTINUOUS
10
117.9260170000000016
20
-72.9250329999999991
11
118.0047869999999932
21
-73.115200999999999
0
LINE
8
BLACK
6
CONTINUOUS
10
118.0047869999999932
20
-73.115200999999999
11
118.044944000000001
21
-73.3170819999999992
0
LINE
8
BLACK
6
CONTINUOUS
10
118.044944000000001
20
-73.3170819999999992
11
118.044944000000001
21
-73.52291799999999
0
LINE
8
BLACK
6
CONTINUOUS
10
118.044944000000001
20
-73.52291799999999
11
118.0047869999999932
21
-73.7247989999999902
0
LINE
8
BLACK
6
CONTINUOUS
10
118.0047869999999932
20
-73.7247989999999902
11
117.9260170000000016
21
-73.9149669999999901
0
LINE
8
BLACK
6
CONTINUOUS
10
117.9260170000000016
20
-73.9149669999999901
11
117.8116610000000009
21
-74.0861129999999974
0
LINE
8
BLACK
6
CONTINUOUS
10
117.8116610000000009
20
-74.0861129999999974
11
117.6661129999999957
21
-74.2316610000000026
0
LINE
8
BLACK
6
CONTINUOUS
10
117.6661129999999957
20
-74.2316610000000026
11
117.4949669999999884
21
-74.3460170000000033
0
LINE
8
BLACK
6
CONTINUOUS
10
117.4949669999999884
20
-74.3460170000000033
11
117.3047989999999885
21
-74.4247869999999949
0
LINE
8
BLACK
6
CONTINUOUS
10
117.3047989999999885
20
-74.4247869999999949
11
117.1029179999999883
21
-74.4649440000000027
0
LINE
8
BLACK
6
CONTINUOUS
10
117.1029179999999883
20
-74.4649440000000027
11
116.8970819999999975
21
-74.4649440000000027
0
LINE
8
BLACK
6
CONTINUOUS
10
116.8970819999999975
20
-74.4649440000000027
11
116.6952009999999973
21
-74.4247869999999949
0
LINE
8
BLACK
6
CONTINUOUS
10
116.6952009999999973
20
-74.4247869999999949
11
116.5050329999999974
21
-74.3460170000000033
0
LINE
8
BLACK
6
CONTINUOUS
10
116.5050329999999974
20
-74.3460170000000033
11
116.3338869999999901
21
-74.2316610000000026
0
LINE
8
BLACK
6
CONTINUOUS
10
116.3338869999999901
20
-74.2316610000000026
11
116.1883389999999991
21
-74.0861129999999974
0
LINE
8
BLACK
6
CONTINUOUS
10
116.1883389999999991
20
-74.0861129999999974
11
116.0773459999999915
21
-73.9200000000000017
0
LINE
8
BLACK
6
CONTINUOUS
10
116.0773459999999915
20
-73.9200000000000017
11
113.7871059999999943
21
-73.9200000000000017
0
LINE
8
BLACK
6
CONTINUOUS
10
113.7871059999999943
20
-73.9200000000000017
11
113.5
21
-74.207105999999996
0
LINE
8
BLACK
6
CONTINUOUS
10
113.5
20
-74.207105999999996
11
113.5
21
-76.5
0
LINE
8
BLACK
6
CONTINUOUS
10
113.5
20
-76.5
11
113.4957229999999981
21
-76.5652469999999994
0
LINE
8
BLACK
6
CONTINUOUS
10
113.4957229999999981
20
-76.5652469999999994
11
113.4957229999999981
21
-76.5652630000000016
0
LINE
8
BLACK
6
CONTINUOUS
10
113.4957229999999981
20
-76.5652630000000016
11
113.4619399999999985
21
-76.6913419999999917
0
LINE
8
BLACK
6
CONTINUOUS
10
113.4619399999999985
20
-76.6913419999999917
11
113.3966769999999968
21
-76.8043809999999922
0
LINE
8
BLACK
6
CONTINUOUS
10
113.3966769999999968
20
-76.8043809999999922
11
113.3966609999999946
21
-76.804395999999997
0
LINE
8
BLACK
6
CONTINUOUS
10
113.3966609999999946
20
-76.804395999999997
11
113.3535529999999909
21
-76.8535529999999909
0
LINE
8
BLACK
6
CONTINUOUS
10
113.3535529999999909
20
-76.8535529999999909
11
110.8535529999999909
21
-79.3535529999999909
0
LINE
8
BLACK
6
CONTINUOUS
10
110.8535529999999909
20
-79.3535529999999909
11
110.804395999999997
21
-79.3966609999999946
0
LINE
8
BLACK
6
CONTINUOUS
10
110.804395999999997
20
-79.3966609999999946
11
110.8043809999999922
21
-79.3966769999999968
0
LINE
8
BLACK
6
CONTINUOUS
10
110.8043809999999922
20
-79.3966769999999968
11
110.6913419999999917
21
-79.4619399999999985
0
LINE
8
BLACK
6
CONTINUOUS
10
110.6913419999999917
20
-79.4619399999999985
11
110.5652630000000016
21
-79.4957229999999981
0
LINE
8
BLACK
6
CONTINUOUS
10
110.5652630000000016
20
-79.4957229999999981
11
110.5652479999999969
21
-79.4957229999999981
0
LINE
8
BLACK
6
CONTINUOUS
10
110.5652479999999969
20
-79.4957229999999981
11
110.5
21
-79.5
0
LINE
8
BLACK
6
CONTINUOUS
10
110.5
20
-79.5
11
92.6497650000000021
21
-79.5
0
LINE
8
BLACK
6
CONTINUOUS
10
92.6497650000000021
20
-79.5
11
92.5845169999999911
21
-79.4957229999999981
0
LINE
8
BLACK
6
CONTINUOUS
10
92.5845169999999911
20
-79.4957229999999981
11
92.5845020000000005
21
-79.4957229999999981
0
LINE
8
BLACK
6
CONTINUOUS
10
92.5845020000000005
20
-79.4957229999999981
11
92.4584229999999963
21
-79.4619399999999985
0
LINE
8
BLACK
6
CONTINUOUS
10
92.4584229999999963
20
-79.4619399999999985
11
92.3453839999999957
21
-79.3966769999999968
0
LINE
8
BLACK
6
CONTINUOUS
10
92.3453839999999957
20
-79.3966769999999968
11
92.34537499999999
21
-79.3966679999999911
0
LINE
8
BLACK
6
CONTINUOUS
10
92.34537499999999
20
-79.3966679999999911
11
92.2962109999999996
21
-79.3535529999999909
0
LINE
8
BLACK
6
CONTINUOUS
10
92.2962109999999996
20
-79.3535529999999909
11
89.1464469999999949
21
-76.203788000000003
0
LINE
8
BLACK
6
CONTINUOUS
10
89.1464469999999949
20
-76.203788000000003
11
89.1033379999999937
21
-76.1546309999999949
0
LINE
8
BLACK
6
CONTINUOUS
10
89.1033379999999937
20
-76.1546309999999949
11
89.103322999999989
21
-76.1546159999999901
0
LINE
8
BLACK
6
CONTINUOUS
10
89.103322999999989
20
-76.1546159999999901
11
89.0380600000000015
21
-76.0415769999999895
0
LINE
8
BLACK
6
CONTINUOUS
10
89.0380600000000015
20
-76.0415769999999895
11
89.0336889999999954
21
-76.0252629999999954
0
LINE
8
BLACK
6
CONTINUOUS
10
89.0336889999999954
20
-76.0252629999999954
11
89.0042770000000019
21
-75.9154979999999995
0
LINE
8
BLACK
6
CONTINUOUS
10
89.0042770000000019
20
-75.9154979999999995
11
89.0042770000000019
21
-75.9154819999999972
0
LINE
8
BLACK
6
CONTINUOUS
10
89.0042770000000019
20
-75.9154819999999972
11
89.
21
-75.8502349999999979
0
LINE
8
BLACK
6
CONTINUOUS
10
89.
20
-75.8502349999999979
11
89.
21
-67.078000000000003
0
LINE
8
BLACK
6
CONTINUOUS
10
89.
20
-67.078000000000003
11
89.0042770000000019
21
-67.0127519999999919
0
LINE
8
BLACK
6
CONTINUOUS
10
89.0042770000000019
20
-67.0127519999999919
11
89.0042770000000019
21
-67.0127370000000013
0
LINE
8
BLACK
6
CONTINUOUS
10
89.0042770000000019
20
-67.0127370000000013
11
89.0380600000000015
21
-66.8866579999999971
0
LINE
8
BLACK
6
CONTINUOUS
10
89.0380600000000015
20
-66.8866579999999971
11
89.0462429999999898
21
-66.8724849999999975
0
LINE
8
BLACK
6
CONTINUOUS
10
89.0462429999999898
20
-66.8724849999999975
11
89.103322999999989
21
-66.7736189999999965
0
LINE
8
BLACK
6
CONTINUOUS
10
89.103322999999989
20
-66.7736189999999965
11
89.1033379999999937
21
-66.7736029999999943
0
LINE
8
BLACK
6
CONTINUOUS
10
89.1033379999999937
20
-66.7736029999999943
11
89.1464469999999949
21
-66.7244469999999978
0
LINE
8
BLACK
6
CONTINUOUS
10
89.1464469999999949
20
-66.7244469999999978
11
91.7650000000000006
21
-64.1058929999999947
0
LINE
8
BLACK
6
CONTINUOUS
10
91.7650000000000006
20
-64.1058929999999947
11
91.7650000000000006
21
-64.039999999999992
0
LINE
8
BLACK
6
CONTINUOUS
10
91.7650000000000006
20
-64.039999999999992
11
91.8393749999999898
21
-64.039999999999992
0
LINE
8
BLACK
6
CONTINUOUS
10
91.8393749999999898
20
-64.039999999999992
11
91.9466579999999993
21
-63.9780599999999993
0
LINE
8
BLACK
6
CONTINUOUS
10
91.9466579999999993
20
-63.9780599999999993
11
92.0727369999999894
21
-63.9442769999999996
0
LINE
8
BLACK
6
CONTINUOUS
10
92.0727369999999894
20
-63.9442769999999996
11
92.0727519999999942
21
-63.9442769999999996
0
LINE
8
BLACK
6
CONTINUOUS
10
92.0727519999999942
20
-63.9442769999999996
11
92.137999999999991
21
-63.9399999999999977
0
LINE
8
BLACK
6
CONTINUOUS
10
92.137999999999991
20
-63.9399999999999977
11
94.1560580000000016
21
-63.9399999999999977
0
LINE
8
BLACK
6
CONTINUOUS
10
94.1560580000000016
20
-63.9399999999999977
11
94.2147369999999995
21
-63.9242769999999965
0
LINE
8
BLACK
6
CONTINUOUS
10
94.2147369999999995
20
-63.9242769999999965
11
94.3452630000000028
21
-63.9242769999999965
0
LINE
8
BLACK
6
CONTINUOUS
10
94.3452630000000028
20
-63.9242769999999965
11
94.4713419999999928
21
-63.9580599999999961
0
LINE
8
BLACK
6
CONTINUOUS
10
74.5587790000000012
20
-43.9190979999999982
11
74.5707110000000029
21
-43.9292889999999971
0
LINE
8
BLACK
6
CONTINUOUS
10
74.5707110000000029
20
-43.9292889999999971
11
77.5707110000000029
21
-46.9292889999999971
0
LINE
8
BLACK
6
CONTINUOUS
10
77.5707110000000029
20
-46.9292889999999971
11
77.5987689999999901
21
-46.9843569999999957
0
LINE
8
BLACK
6
CONTINUOUS
10
77.5987689999999901
20
-46.9843569999999957
11
77.5999999999999943
21
-47.
0
LINE
8
BLACK
6
CONTINUOUS
10
77.5999999999999943
20
-47.
11
77.5999999999999943
21
-70.5
0
LINE
8
BLACK
6
CONTINUOUS
10
77.5999999999999943
20
-70.5
11
77.5809019999999947
21
-70.5587790000000012
0
LINE
8
BLACK
6
CONTINUOUS
10
77.5809019999999947
20
-70.5587790000000012
11
77.5707110000000029
21
-70.5707110000000029
0
LINE
8
BLACK
6
CONTINUOUS
10
77.5707110000000029
20
-70.5707110000000029
11
69.5707110000000029
21
-78.5707110000000029
0
LINE
8
BLACK
6
CONTINUOUS
10
69.5707110000000029
20
-78.5707110000000029
11
69.5156429999999972
21
-78.5987689999999901
0
LINE
8
BLACK
6
CONTINUOUS
10
69.5156429999999972
20
-78.5987689999999901
11
69.5
21
-78.5999999999999943
0
LINE
8
BLACK
6
CONTINUOUS
10
69.5
20
-78.5999999999999943
11
46.
21
-78.5999999999999943
0
LINE
8
BLACK
6
CONTINUOUS
10
46.
20
-78.5999999999999943
11
45.9412209999999988
21
-78.5809019999999947
0
LINE
8
BLACK
6
CONTINUOUS
10
45.9412209999999988
20
-78.5809019999999947
11
45.9314639999999983
21
-78.572819999999993
0
LINE
8
BLACK
6
CONTINUOUS
10
45.9314639999999983
20
-78.572819999999993
11
37.4314639999999983
21
-70.572819999999993
0
LINE
8
BLACK
6
CONTINUOUS
10
37.4314639999999983
20
-70.572819999999993
11
37.4017499999999998
21
-70.5186279999999925
0
LINE
8
BLACK
6
CONTINUOUS
10
37.4017499999999998
20
-70.5186279999999925
11
37.3999999999999986
21
-70.5
0
LINE
8
BLACK
6
CONTINUOUS
10
37.3999999999999986
20
-70.5
11
37.3999999999999986
21
-57.5
0
LINE
8
BLACK
6
CONTINUOUS
10
37.3999999999999986
20
-57.5
11
37.4190979999999982
21
-57.4412209999999988
0
LINE
8
BLACK
6
CONTINUOUS
10
37.4190979999999982
20
-57.4412209999999988
11
37.4292889999999971
21
-57.4292889999999971
0
LINE
8
BLACK
6
CONTINUOUS
10
37.4292889999999971
20
-57.4292889999999971
11
46.9292889999999971
21
-47.9292889999999971
0
LINE
8
BLACK
6
CONTINUOUS
10
46.9292889999999971
20
-47.9292889999999971
11
46.9843569999999957
21
-47.9012309999999957
0
LINE
8
BLACK
6
CONTINUOUS
10
46.9843569999999957
20
-47.9012309999999957
11
47.
21
-47.8999999999999986
0
LINE
8
BLACK
6
CONTINUOUS
10
47.
20
-47.8999999999999986
11
56.9585779999999957
21
-47.8999999999999986
0
LINE
8
BLACK
6
CONTINUOUS
10
56.9585779999999957
20
-47.8999999999999986
11
60.9292889999999971
21
-43.9292889999999971
0
LINE
8
BLACK
6
CONTINUOUS
10
60.9292889999999971
20
-43.9292889999999971
11
60.9843569999999957
21
-43.9012309999999957
0
LINE
8
BLACK
6
CONTINUOUS
10
60.9843569999999957
20
-43.9012309999999957
11
61.
21
-43.8999999999999986
0
LINE
8
BLACK
6
CONTINUOUS
10
61.
20
-43.8999999999999986
11
74.5
21
-43.8999999999999986
0
LINE
8
BLACK
6
CONTINUOUS
10
74.5
20
-43.8999999999999986
11
74.5587790000000012
21
-43.9190979999999982
0
LINE
8
BLACK
6
CONTINUOUS
10
94.7650000000000006
20
-74.376570000000001
11
94.7725149999999985
21
-74.3815919999999977
0
LINE
8
BLACK
6
CONTINUOUS
10
94.7725149999999985
20
-74.3815919999999977
11
94.8834079999999886
21
-74.4924850000000021
0
LINE
8
BLACK
6
CONTINUOUS
10
94.8834079999999886
20
-74.4924850000000021
11
94.9705369999999931
21
-74.6228830000000016
0
LINE
8
BLACK
6
CONTINUOUS
10
94.9705369999999931
20
-74.6228830000000016
11
95.0305520000000001
21
-74.7677719999999937
0
LINE
8
BLACK
6
CONTINUOUS
10
95.0305520000000001
20
-74.7677719999999937
11
95.0611479999999887
21
-74.9215859999999907
0
LINE
8
BLACK
6
CONTINUOUS
10
95.0611479999999887
20
-74.9215859999999907
11
95.0611479999999887
21
-75.0784139999999951
0
LINE
8
BLACK
6
CONTINUOUS
10
95.0611479999999887
20
-75.0784139999999951
11
95.0305520000000001
21
-75.2322279999999921
0
LINE
8
BLACK
6
CONTINUOUS
10
95.0305520000000001
20
-75.2322279999999921
11
94.9705369999999931
21
-75.3771169999999984
0
LINE
8
BLACK
6
CONTINUOUS
10
94.9705369999999931
20
-75.3771169999999984
11
94.8834079999999886
21
-75.5075149999999979
0
LINE
8
BLACK
6
CONTINUOUS
10
94.8834079999999886
20
-75.5075149999999979
11
94.7725149999999985
21
-75.6184080000000023
0
LINE
8
BLACK
6
CONTINUOUS
10
94.7725149999999985
20
-75.6184080000000023
11
94.7650000000000006
21
-75.6234290000000016
0
LINE
8
BLACK
6
CONTINUOUS
10
94.7650000000000006
20
-75.6234290000000016
11
94.7650000000000006
21
-75.7999999999999972
0
LINE
8
BLACK
6
CONTINUOUS
10
94.7650000000000006
20
-75.7999999999999972
11
91.7650000000000006
21
-75.7999999999999972
0
LINE
8
BLACK
6
CONTINUOUS
10
91.7650000000000006
20
-75.7999999999999972
11
91.7650000000000006
21
-74.2000000000000028
0
LINE
8
BLACK
6
CONTINUOUS
10
91.7650000000000006
20
-74.2000000000000028
11
94.7650000000000006
21
-74.2000000000000028
0
LINE
8
BLACK
6
CONTINUOUS
10
94.7650000000000006
20
-74.2000000000000028
11
94.7650000000000006
21
-74.376570000000001
0
LINE
8
BLACK
6
CONTINUOUS
10
112.
20
-75.7999999999999972
11
109.
21
-75.7999999999999972
0
LINE
8
BLACK
6
CONTINUOUS
10
109.
20
-75.7999999999999972
11
109.
21
-75.6234290000000016
0
LINE
8
BLACK
6
CONTINUOUS
10
109.
20
-75.6234290000000016
11
108.9924850000000021
21
-75.6184080000000023
0
LINE
8
BLACK
6
CONTINUOUS
10
108.9924850000000021
20
-75.6184080000000023
11
108.8815919999999977
21
-75.5075149999999979
0
LINE
8
BLACK
6
CONTINUOUS
10
108.8815919999999977
20
-75.5075149999999979
11
108.7944629999999933
21
-75.3771169999999984
0
LINE
8
BLACK
6
CONTINUOUS
10
108.7944629999999933
20
-75.3771169999999984
11
108.7344480000000004
21
-75.2322279999999921
0
LINE
8
BLACK
6
CONTINUOUS
10
108.7344480000000004
20
-75.2322279999999921
11
108.7038519999999977
21
-75.0784139999999951
0
LINE
8
BLACK
6
CONTINUOUS
10
108.7038519999999977
20
-75.0784139999999951
11
108.7038519999999977
21
-74.9215859999999907
0
LINE
8
BLACK
6
CONTINUOUS
10
108.7038519999999977
20
-74.9215859999999907
11
108.7344480000000004
21
-74.7677719999999937
0
LINE
8
BLACK
6
CONTINUOUS
10
108.7344480000000004
20
-74.7677719999999937
11
108.7944629999999933
21
-74.6228830000000016
0
LINE
8
BLACK
6
CONTINUOUS
10
108.7944629999999933
20
-74.6228830000000016
11
108.8815919999999977
21
-74.4924850000000021
0
LINE
8
BLACK
6
CONTINUOUS
10
108.8815919999999977
20
-74.4924850000000021
11
108.9924850000000021
21
-74.3815919999999977
0
LINE
8
BLACK
6
CONTINUOUS
10
108.9924850000000021
20
-74.3815919999999977
11
109.
21
-74.376570000000001
0
LINE
8
BLACK
6
CONTINUOUS
10
109.
20
-74.376570000000001
11
109.
21
-74.2000000000000028
0
LINE
8
BLACK
6
CONTINUOUS
10
109.
20
-74.2000000000000028
11
112.
21
-74.2000000000000028
0
LINE
8
BLACK
6
CONTINUOUS
10
112.
20
-74.2000000000000028
11
112.
21
-75.7999999999999972
0
LINE
8
BLACK
6
CONTINUOUS
10
94.7650000000000006
20
-71.8365699999999947
11
94.7725149999999985
21
-71.8415919999999915
0
LINE
8
BLACK
6
CONTINUOUS
10
94.7725149999999985
20
-71.8415919999999915
11
94.8834079999999886
21
-71.9524849999999958
0
LINE
8
BLACK
6
CONTINUOUS
10
94.8834079999999886
20
-71.9524849999999958
11
94.9705369999999931
21
-72.0828829999999954
0
LINE
8
BLACK
6
CONTINUOUS
10
94.9705369999999931
20
-72.0828829999999954
11
95.0305520000000001
21
-72.2277720000000016
0
LINE
8
BLACK
6
CONTINUOUS
10
95.0305520000000001
20
-72.2277720000000016
11
95.0611479999999887
21
-72.3815859999999986
0
LINE
8
BLACK
6
CONTINUOUS
10
95.0611479999999887
20
-72.3815859999999986
11
95.0611479999999887
21
-72.5384140000000031
0
LINE
8
BLACK
6
CONTINUOUS
10
95.0611479999999887
20
-72.5384140000000031
11
95.0305520000000001
21
-72.6922280000000001
0
LINE
8
BLACK
6
CONTINUOUS
10
95.0305520000000001
20
-72.6922280000000001
11
94.9705369999999931
21
-72.8371169999999921
0
LINE
8
BLACK
6
CONTINUOUS
10
94.9705369999999931
20
-72.8371169999999921
11
94.8834079999999886
21
-72.9675149999999917
0
LINE
8
BLACK
6
CONTINUOUS
10
94.8834079999999886
20
-72.9675149999999917
11
94.7725149999999985
21
-73.078407999999996
0
LINE
8
BLACK
6
CONTINUOUS
10
94.7725149999999985
20
-73.078407999999996
11
94.7650000000000006
21
-73.0834289999999953
0
LINE
8
BLACK
6
CONTINUOUS
10
94.7650000000000006
20
-73.0834289999999953
11
94.7650000000000006
21
-73.2599999999999909
0
LINE
8
BLACK
6
CONTINUOUS
10
94.7650000000000006
20
-73.2599999999999909
11
91.7650000000000006
21
-73.2599999999999909
0
LINE
8
BLACK
6
CONTINUOUS
10
91.7650000000000006
20
-73.2599999999999909
11
91.7650000000000006
21
-71.6599999999999966
0
LINE
8
BLACK
6
CONTINUOUS
10
91.7650000000000006
20
-71.6599999999999966
11
94.7650000000000006
21
-71.6599999999999966
0
LINE
8
BLACK
6
CONTINUOUS
10
94.7650000000000006
20
-71.6599999999999966
11
94.7650000000000006
21
-71.8365699999999947
0
LINE
8
BLACK
6
CONTINUOUS
10
112.
20
-73.2599999999999909
11
109.
21
-73.2599999999999909
0
LINE
8
BLACK
6
CONTINUOUS
10
109.
20
-73.2599999999999909
11
109.
21
-73.0834289999999953
0
LINE
8
BLACK
6
CONTINUOUS
10
109.
20
-73.0834289999999953
11
108.9924850000000021
21
-73.078407999999996
0
LINE
8
BLACK
6
CONTINUOUS
10
108.9924850000000021
20
-73.078407999999996
11
108.8815919999999977
21
-72.9675149999999917
0
LINE
8
BLACK
6
CONTINUOUS
10
108.8815919999999977
20
-72.9675149999999917
11
108.7944629999999933
21
-72.8371169999999921
0
LINE
8
BLACK
6
CONTINUOUS
10
108.7944629999999933
20
-72.8371169999999921
11
108.7344480000000004
21
-72.6922280000000001
0
LINE
8
BLACK
6
CONTINUOUS
10
108.7344480000000004
20
-72.6922280000000001
11
108.7038519999999977
21
-72.5384140000000031
0
LINE
8
BLACK
6
CONTINUOUS
10
108.7038519999999977
20
-72.5384140000000031
11
108.7038519999999977
21
-72.3815859999999986
0
LINE
8
BLACK
6
CONTINUOUS
10
108.7038519999999977
20
-72.3815859999999986
11
108.7344480000000004
21
-72.2277720000000016
0
LINE
8
BLACK
6
CONTINUOUS
10
108.7344480000000004
20
-72.2277720000000016
11
108.7944629999999933
21
-72.0828829999999954
0
LINE
8
BLACK
6
CONTINUOUS
10
108.7944629999999933
20
-72.0828829999999954
11
108.8815919999999977
21
-71.9524849999999958
0
LINE
8
BLACK
6
CONTINUOUS
10
108.8815919999999977
20
-71.9524849999999958
11
108.9924850000000021
21
-71.8415919999999915
0
LINE
8
BLACK
6
CONTINUOUS
10
108.9924850000000021
20
-71.8415919999999915
11
109.
21
-71.8365699999999947
0
LINE
8
BLACK
6
CONTINUOUS
10
109.
20
-71.8365699999999947
11
109.
21
-71.6599999999999966
0
LINE
8
BLACK
6
CONTINUOUS
10
109.
20
-71.6599999999999966
11
112.
21
-71.6599999999999966
0
LINE
8
BLACK
6
CONTINUOUS
10
112.
20
-71.6599999999999966
11
112.
21
-73.2599999999999909
0
LINE
8
BLACK
6
CONTINUOUS
10
112.0052479999999946
20
-63.9442769999999996
11
112.0052629999999994
21
-63.9442769999999996
0
LINE
8
BLACK
6
CONTINUOUS
10
112.0052629999999994
20
-63.9442769999999996
11
112.1313419999999894
21
-63.9780599999999993
0
LINE
8
BLACK
6
CONTINUOUS
10
112.1313419999999894
20
-63.9780599999999993
11
112.24438099999999
21
-64.0433230000000009
0
LINE
8
BLACK
6
CONTINUOUS
10
112.24438099999999
20
-64.0433230000000009
11
112.2443959999999947
21
-64.0433379999999914
0
LINE
8
BLACK
6
CONTINUOUS
10
112.2443959999999947
20
-64.0433379999999914
11
112.2935529999999886
21
-64.0864469999999926
0
LINE
8
BLACK
6
CONTINUOUS
10
112.2935529999999886
20
-64.0864469999999926
11
114.4735539999999929
21
-66.2664469999999994
0
LINE
8
BLACK
6
CONTINUOUS
10
114.4735539999999929
20
-66.2664469999999994
11
114.5166689999999932
21
-66.3156110000000041
0
LINE
8
BLACK
6
CONTINUOUS
10
114.5166689999999932
20
-66.3156110000000041
11
114.5166770000000014
21
-66.3156189999999981
0
LINE
8
BLACK
6
CONTINUOUS
10
114.5166770000000014
20
-66.3156189999999981
11
114.5819399999999888
21
-66.4286579999999987
0
LINE
8
BLACK
6
CONTINUOUS
10
114.5819399999999888
20
-66.4286579999999987
11
114.5819399999999888
21
-66.4286589999999961
0
LINE
8
BLACK
6
CONTINUOUS
10
114.5819399999999888
20
-66.4286589999999961
11
114.6157229999999885
21
-66.5547370000000029
0
LINE
8
BLACK
6
CONTINUOUS
10
114.6157229999999885
20
-66.5547370000000029
11
114.6157229999999885
21
-66.5547519999999935
0
LINE
8
BLACK
6
CONTINUOUS
10
114.6157229999999885
20
-66.5547519999999935
11
114.6199999999999903
21
-66.6199999999999903
0
LINE
8
BLACK
6
CONTINUOUS
10
114.6199999999999903
20
-66.6199999999999903
11
114.6199999999999903
21
-67.792894000000004
0
LINE
8
BLACK
6
CONTINUOUS
10
114.6199999999999903
20
-67.792894000000004
11
116.7011380000000003
21
-69.8740319999999997
0
LINE
8
BLACK
6
CONTINUOUS
10
116.7011380000000003
20
-69.8740319999999997
11
116.8970819999999975
21
-69.8350559999999945
0
LINE
8
BLACK
6
CONTINUOUS
10
116.8970819999999975
20
-69.8350559999999945
11
117.1029179999999883
21
-69.8350559999999945
0
LINE
8
BLACK
6
CONTINUOUS
10
117.1029179999999883
20
-69.8350559999999945
11
117.3047989999999885
21
-69.8752130000000022
0
LINE
8
BLACK
6
CONTINUOUS
10
117.3047989999999885
20
-69.8752130000000022
11
117.4949669999999884
21
-69.9539829999999938
0
LINE
8
BLACK
6
CONTINUOUS
10
117.4949669999999884
20
-69.9539829999999938
11
117.6661129999999957
21
-70.0683389999999946
0
LINE
8
BLACK
6
CONTINUOUS
10
117.6661129999999957
20
-70.0683389999999946
11
117.8116610000000009
21
-70.2138869999999997
0
LINE
8
BLACK
6
CONTINUOUS
10
117.8116610000000009
20
-70.2138869999999997
11
117.9260170000000016
21
-70.3850329999999929
0
LINE
8
BLACK
6
CONTINUOUS
10
117.9260170000000016
20
-70.3850329999999929
11
118.0047869999999932
21
-70.5752009999999927
0
LINE
8
BLACK
6
CONTINUOUS
10
118.0047869999999932
20
-70.5752009999999927
11
118.044944000000001
21
-70.7770819999999929
0
LINE
8
BLACK
6
CONTINUOUS
10
118.044944000000001
20
-70.7770819999999929
11
118.044944000000001
21
-70.982917999999998
0
LINE
8
BLACK
6
CONTINUOUS
10
118.044944000000001
20
-70.982917999999998
11
118.0047869999999932
21
-71.1847989999999982
0
LINE
8
BLACK
6
CONTINUOUS
10
118.0047869999999932
20
-71.1847989999999982
11
117.9260170000000016
21
-71.3749669999999981
0
LINE
8
BLACK
6
CONTINUOUS
10
117.9260170000000016
20
-71.3749669999999981
11
117.8116610000000009
21
-71.5461129999999912
0
LINE
8
BLACK
6
CONTINUOUS
10
117.8116610000000009
20
-71.5461129999999912
11
117.6661129999999957
21
-71.6916609999999963
0
LINE
8
BLACK
6
CONTINUOUS
10
117.6661129999999957
20
-71.6916609999999963
11
117.4949669999999884
21
-71.8060169999999971
0
LINE
8
BLACK
6
CONTINUOUS
10
117.4949669999999884
20
-71.8060169999999971
11
117.3047989999999885
21
-71.8847870000000029
0
LINE
8
BLACK
6
CONTINUOUS
10
117.3047989999999885
20
-71.8847870000000029
11
117.1029179999999883
21
-71.9249439999999964
0
LINE
8
BLACK
6
CONTINUOUS
10
117.1029179999999883
20
-71.9249439999999964
11
116.8970819999999975
21
-71.9249439999999964
0
LINE
8
BLACK
6
CONTINUOUS
10
116.8970819999999975
20
-71.9249439999999964
11
116.6952009999999973
21
-71.8847870000000029
0
LINE
8
BLACK
6
CONTINUOUS
10
116.6952009999999973
20
-71.8847870000000029
11
116.5050329999999974
21
-71.8060169999999971
0
LINE
8
BLACK
6
CONTINUOUS
10
116.5050329999999974
20
-71.8060169999999971
11
116.3338869999999901
21
-71.6916609999999963
0
LINE
8
BLACK
6
CONTINUOUS
10
116.3338869999999901
20
-71.6916609999999963
11
116.1883389999999991
21
-71.5461129999999912
0
LINE
8
BLACK
6
CONTINUOUS
10
116.1883389999999991
20
-71.5461129999999912
11
116.0739829999999984
21
-71.3749669999999981
0
LINE
8
BLACK
6
CONTINUOUS
10
116.0739829999999984
20
-71.3749669999999981
11
115.9952129999999926
21
-71.1847989999999982
0
LINE
8
BLACK
6
CONTINUOUS
10
115.9952129999999926
20
-71.1847989999999982
11
115.955055999999999
21
-70.982917999999998
0
LINE
8
BLACK
6
CONTINUOUS
10
115.955055999999999
20
-70.982917999999998
11
115.955055999999999
21
-70.7770819999999929
0
LINE
8
BLACK
6
CONTINUOUS
10
115.955055999999999
20
-70.7770819999999929
11
115.99403199999999
21
-70.5811379999999957
0
LINE
8
BLACK
6
CONTINUOUS
10
115.99403199999999
20
-70.5811379999999957
11
113.7664469999999994
21
-68.3535529999999909
0
LINE
8
BLACK
6
CONTINUOUS
10
113.7664469999999994
20
-68.3535529999999909
11
113.7233379999999983
21
-68.304395999999997
0
LINE
8
BLACK
6
CONTINUOUS
10
113.7233379999999983
20
-68.304395999999997
11
113.7233229999999935
21
-68.3043809999999922
0
LINE
8
BLACK
6
CONTINUOUS
10
113.7233229999999935
20
-68.3043809999999922
11
113.6580599999999919
21
-68.1913419999999917
0
LINE
8
BLACK
6
CONTINUOUS
10
113.6580599999999919
20
-68.1913419999999917
11
113.6457909999999885
21
-68.145551999999995
0
LINE
8
BLACK
6
CONTINUOUS
10
113.6457909999999885
20
-68.145551999999995
11
113.6242769999999922
21
-68.0652630000000016
0
LINE
8
BLACK
6
CONTINUOUS
10
113.6242769999999922
20
-68.0652630000000016
11
113.6242769999999922
21
-68.0652469999999994
0
LINE
8
BLACK
6
CONTINUOUS
10
113.6242769999999922
20
-68.0652469999999994
11
113.6199999999999903
21
-68.
0
LINE
8
BLACK
6
CONTINUOUS
10
113.6199999999999903
20
-68.
11
113.6199999999999903
21
-66.8271060000000006
0
LINE
8
BLACK
6
CONTINUOUS
10
113.6199999999999903
20
-66.8271060000000006
11
112.
21
-65.207105999999996
0
LINE
8
BLACK
6
CONTINUOUS
10
112.
20
-65.207105999999996
11
112.
21
-65.6400000000000006
0
LINE
8
BLACK
6
CONTINUOUS
10
112.
20
-65.6400000000000006
11
109.
21
-65.6400000000000006
0
LINE
8
BLACK
6
CONTINUOUS
10
109.
20
-65.6400000000000006
11
109.
21
-65.4634289999999908
0
LINE
8
BLACK
6
CONTINUOUS
10
109.
20
-65.4634289999999908
11
108.9924850000000021
21
-65.4584079999999915
0
LINE
8
BLACK
6
CONTINUOUS
10
108.9924850000000021
20
-65.4584079999999915
11
108.8815919999999977
21
-65.3475150000000014
0
LINE
8
BLACK
6
CONTINUOUS
10
108.8815919999999977
20
-65.3475150000000014
11
108.7944629999999933
21
-65.2171170000000018
0
LINE
8
BLACK
6
CONTINUOUS
10
108.7944629999999933
20
-65.2171170000000018
11
108.7344480000000004
21
-65.0722279999999955
0
LINE
8
BLACK
6
CONTINUOUS
10
108.7344480000000004
20
-65.0722279999999955
11
108.7038519999999977
21
-64.9184139999999985
0
LINE
8
BLACK
6
CONTINUOUS
10
108.7038519999999977
20
-64.9184139999999985
11
108.7038519999999977
21
-64.7615859999999941
0
LINE
8
BLACK
6
CONTINUOUS
10
108.7038519999999977
20
-64.7615859999999941
11
108.7344480000000004
21
-64.6077719999999971
0
LINE
8
BLACK
6
CONTINUOUS
10
108.7344480000000004
20
-64.6077719999999971
11
108.7944629999999933
21
-64.4628829999999908
0
LINE
8
BLACK
6
CONTINUOUS
10
108.7944629999999933
20
-64.4628829999999908
11
108.8815919999999977
21
-64.3324849999999913
0
LINE
8
BLACK
6
CONTINUOUS
10
108.8815919999999977
20
-64.3324849999999913
11
108.9924850000000021
21
-64.2215920000000011
0
LINE
8
BLACK
6
CONTINUOUS
10
108.9924850000000021
20
-64.2215920000000011
11
109.
21
-64.2165699999999902
0
LINE
8
BLACK
6
CONTINUOUS
10
109.
20
-64.2165699999999902
11
109.
21
-64.039999999999992
0
LINE
8
BLACK
6
CONTINUOUS
10
109.
20
-64.039999999999992
11
109.2363749999999953
21
-64.039999999999992
0
LINE
8
BLACK
6
CONTINUOUS
10
109.2363749999999953
20
-64.039999999999992
11
109.3436579999999907
21
-63.9780599999999993
0
LINE
8
BLACK
6
CONTINUOUS
10
109.3436579999999907
20
-63.9780599999999993
11
109.469736999999995
21
-63.9442779999999971
0
LINE
8
BLACK
6
CONTINUOUS
10
109.469736999999995
20
-63.9442779999999971
11
109.5349999999999966
21
-63.9399999999999977
0
LINE
8
BLACK
6
CONTINUOUS
10
109.5349999999999966
20
-63.9399999999999977
11
111.9399999999999977
21
-63.9399999999999977
0
LINE
8
BLACK
6
CONTINUOUS
10
111.9399999999999977
20
-63.9399999999999977
11
112.0052479999999946
21
-63.9442769999999996
0
LINE
8
BLACK
6
CONTINUOUS
10
118.5652479999999969
20
-54.0042769999999948
11
118.5652630000000016
21
-54.0042769999999948
0
LINE
8
BLACK
6
CONTINUOUS
10
118.5652630000000016
20
-54.0042769999999948
11
118.6913419999999917
21
-54.0380599999999944
0
LINE
8
BLACK
6
CONTINUOUS
10
118.6913419999999917
20
-54.0380599999999944
11
118.8043809999999922
21
-54.1033229999999961
0
LINE
8
BLACK
6
CONTINUOUS
10
118.8043809999999922
20
-54.1033229999999961
11
118.804395999999997
21
-54.1033380000000008
0
LINE
8
BLACK
6
CONTINUOUS
10
118.804395999999997
20
-54.1033380000000008
11
118.8535529999999909
21
-54.1464469999999949
0
LINE
8
BLACK
6
CONTINUOUS
10
118.8535529999999909
20
-54.1464469999999949
11
119.8535539999999884
21
-55.1464469999999949
0
LINE
8
BLACK
6
CONTINUOUS
10
119.8535539999999884
20
-55.1464469999999949
11
119.8966689999999886
21
-55.1956109999999995
0
LINE
8
BLACK
6
CONTINUOUS
10
119.8966689999999886
20
-55.1956109999999995
11
119.8966769999999968
21
-55.1956190000000007
0
LINE
8
BLACK
6
CONTINUOUS
10
119.8966769999999968
20
-55.1956190000000007
11
119.9619399999999985
21
-55.3086579999999941
0
LINE
8
BLACK
6
CONTINUOUS
10
119.9619399999999985
20
-55.3086579999999941
11
119.9619399999999985
21
-55.3086589999999987
0
LINE
8
BLACK
6
CONTINUOUS
10
119.9619399999999985
20
-55.3086589999999987
11
119.9957229999999981
21
-55.4347369999999984
0
LINE
8
BLACK
6
CONTINUOUS
10
119.9957229999999981
20
-55.4347369999999984
11
119.9957229999999981
21
-55.434751999999996
0
LINE
8
BLACK
6
CONTINUOUS
10
119.9957229999999981
20
-55.434751999999996
11
120.
21
-55.5
0
LINE
8
BLACK
6
CONTINUOUS
10
120.
20
-55.5
11
120.
21
-61.5
0
LINE
8
BLACK
6
CONTINUOUS
10
120.
20
-61.5
11
119.9957220000000007
21
-61.5652629999999945
0
LINE
8
BLACK
6
CONTINUOUS
10
119.9957220000000007
20
-61.5652629999999945
11
119.9619399999999985
21
-61.6913419999999988
0
LINE
8
BLACK
6
CONTINUOUS
10
119.9619399999999985
20
-61.6913419999999988
11
119.8966769999999968
21
-61.8043809999999993
0
LINE
8
BLACK
6
CONTINUOUS
10
119.8966769999999968
20
-61.8043809999999993
11
119.8043809999999922
21
-61.8966769999999968
0
LINE
8
BLACK
6
CONTINUOUS
10
119.8043809999999922
20
-61.8966769999999968
11
119.6913419999999917
21
-61.9619399999999985
0
LINE
8
BLACK
6
CONTINUOUS
10
119.6913419999999917
20
-61.9619399999999985
11
119.5652630000000016
21
-61.9957220000000007
0
LINE
8
BLACK
6
CONTINUOUS
10
119.5652630000000016
20
-61.9957220000000007
11
119.5
21
-62.
0
LINE
8
BLACK
6
CONTINUOUS
10
119.5
20
-62.
11
117.9405009999999976
21
-62.
0
LINE
8
BLACK
6
CONTINUOUS
10
117.9405009999999976
20
-62.
11
117.9260170000000016
21
-62.0349669999999946
0
LINE
8
BLACK
6
CONTINUOUS
10
117.9260170000000016
20
-62.0349669999999946
11
117.8116610000000009
21
-62.2061129999999949
0
LINE
8
BLACK
6
CONTINUOUS
10
117.8116610000000009
20
-62.2061129999999949
11
117.6661129999999957
21
-62.351661
0
LINE
8
BLACK
6
CONTINUOUS
10
117.6661129999999957
20
-62.351661
11
117.4949669999999884
21
-62.4660169999999937
0
LINE
8
BLACK
6
CONTINUOUS
10
117.4949669999999884
20
-62.4660169999999937
11
117.3047989999999885
21
-62.5447869999999995
0
LINE
8
BLACK
6
CONTINUOUS
10
117.3047989999999885
20
-62.5447869999999995
11
117.1029179999999883
21
-62.5849440000000001
0
LINE
8
BLACK
6
CONTINUOUS
10
117.1029179999999883
20
-62.5849440000000001
11
116.8970819999999975
21
-62.5849440000000001
0
LINE
8
BLACK
6
CONTINUOUS
10
116.8970819999999975
20
-62.5849440000000001
11
116.6952009999999973
21
-62.5447869999999995
0
LINE
8
BLACK
6
CONTINUOUS
10
116.6952009999999973
20
-62.5447869999999995
11
116.5050329999999974
21
-62.4660169999999937
0
LINE
8
BLACK
6
CONTINUOUS
10
116.5050329999999974
20
-62.4660169999999937
11
116.3338869999999901
21
-62.351661
0
LINE
8
BLACK
6
CONTINUOUS
10
116.3338869999999901
20
-62.351661
11
116.1883389999999991
21
-62.2061129999999949
0
LINE
8
BLACK
6
CONTINUOUS
10
116.1883389999999991
20
-62.2061129999999949
11
116.0739829999999984
21
-62.0349669999999946
0
LINE
8
BLACK
6
CONTINUOUS
10
116.0739829999999984
20
-62.0349669999999946
11
115.9952129999999926
21
-61.8447989999999947
0
LINE
8
BLACK
6
CONTINUOUS
10
115.9952129999999926
20
-61.8447989999999947
11
115.955055999999999
21
-61.6429179999999945
0
LINE
8
BLACK
6
CONTINUOUS
10
115.955055999999999
20
-61.6429179999999945
11
115.955055999999999
21
-61.4370819999999966
0
LINE
8
BLACK
6
CONTINUOUS
10
115.955055999999999
20
-61.4370819999999966
11
115.9952129999999926
21
-61.2352009999999964
0
LINE
8
BLACK
6
CONTINUOUS
10
115.9952129999999926
20
-61.2352009999999964
11
116.0739829999999984
21
-61.0450329999999965
0
LINE
8
BLACK
6
CONTINUOUS
10
116.0739829999999984
20
-61.0450329999999965
11
116.1883389999999991
21
-60.8738869999999963
0
LINE
8
BLACK
6
CONTINUOUS
10
116.1883389999999991
20
-60.8738869999999963
11
116.3338869999999901
21
-60.7283389999999983
0
LINE
8
BLACK
6
CONTINUOUS
10
116.3338869999999901
20
-60.7283389999999983
11
116.5050329999999974
21
-60.6139829999999975
0
LINE
8
BLACK
6
CONTINUOUS
10
116.5050329999999974
20
-60.6139829999999975
11
116.6952009999999973
21
-60.5352129999999988
0
LINE
8
BLACK
6
CONTINUOUS
10
116.6952009999999973
20
-60.5352129999999988
11
116.8970819999999975
21
-60.4950559999999982
0
LINE
8
BLACK
6
CONTINUOUS
10
116.8970819999999975
20
-60.4950559999999982
11
117.1029179999999883
21
-60.4950559999999982
0
LINE
8
BLACK
6
CONTINUOUS
10
117.1029179999999883
20
-60.4950559999999982
11
117.3047989999999885
21
-60.5352129999999988
0
LINE
8
BLACK
6
CONTINUOUS
10
117.3047989999999885
20
-60.5352129999999988
11
117.4949669999999884
21
-60.6139829999999975
0
LINE
8
BLACK
6
CONTINUOUS
10
117.4949669999999884
20
-60.6139829999999975
11
117.6661129999999957
21
-60.7283389999999983
0
LINE
8
BLACK
6
CONTINUOUS
10
117.6661129999999957
20
-60.7283389999999983
11
117.8116610000000009
21
-60.8738869999999963
0
LINE
8
BLACK
6
CONTINUOUS
10
117.8116610000000009
20
-60.8738869999999963
11
117.8959270000000004
21
-61.
0
LINE
8
BLACK
6
CONTINUOUS
10
117.8959270000000004
20
-61.
11
119.
21
-61.
0
LINE
8
BLACK
6
CONTINUOUS
10
119.
20
-61.
11
119.
21
-55.707105999999996
0
LINE
8
BLACK
6
CONTINUOUS
10
119.
20
-55.707105999999996
11
118.2928939999999898
21
-55.
0
LINE
8
BLACK
6
CONTINUOUS
10
118.2928939999999898
20
-55.
11
110.2071069999999935
21
-55.
0
LINE
8
BLACK
6
CONTINUOUS
10
110.2071069999999935
20
-55.
11
107.
21
-58.207105999999996
0
LINE
8
BLACK
6
CONTINUOUS
10
107.
20
-58.207105999999996
11
107.
21
-64.5
0
LINE
8
BLACK
6
CONTINUOUS
10
107.
20
-64.5
11
106.9957229999999981
21
-64.5652469999999994
0
LINE
8
BLACK
6
CONTINUOUS
10
106.9957229999999981
20
-64.5652469999999994
11
106.9957229999999981
21
-64.5652630000000016
0
LINE
8
BLACK
6
CONTINUOUS
10
106.9957229999999981
20
-64.5652630000000016
11
106.9780169999999941
21
-64.6313409999999919
0
LINE
8
BLACK
6
CONTINUOUS
10
106.9780169999999941
20
-64.6313409999999919
11
106.9619399999999985
21
-64.6913419999999917
0
LINE
8
BLACK
6
CONTINUOUS
10
106.9619399999999985
20
-64.6913419999999917
11
106.8966769999999968
21
-64.8043809999999922
0
LINE
8
BLACK
6
CONTINUOUS
10
106.8966769999999968
20
-64.8043809999999922
11
106.8966679999999911
21
-64.8043890000000005
0
LINE
8
BLACK
6
CONTINUOUS
10
106.8966679999999911
20
-64.8043890000000005
11
106.8535529999999909
21
-64.8535529999999909
0
LINE
8
BLACK
6
CONTINUOUS
10
106.8535529999999909
20
-64.8535529999999909
11
101.8335529999999949
21
-69.8735530000000011
0
LINE
8
BLACK
6
CONTINUOUS
10
101.8335529999999949
20
-69.8735530000000011
11
101.784396000000001
21
-69.9166609999999906
0
LINE
8
BLACK
6
CONTINUOUS
10
101.784396000000001
20
-69.9166609999999906
11
101.7843809999999962
21
-69.9166769999999929
0
LINE
8
BLACK
6
CONTINUOUS
10
101.7843809999999962
20
-69.9166769999999929
11
101.6713419999999957
21
-69.9819399999999945
0
LINE
8
BLACK
6
CONTINUOUS
10
101.6713419999999957
20
-69.9819399999999945
11
101.5452629999999914
21
-70.0157229999999942
0
LINE
8
BLACK
6
CONTINUOUS
10
101.5452629999999914
20
-70.0157229999999942
11
101.5452480000000008
21
-70.0157229999999942
0
LINE
8
BLACK
6
CONTINUOUS
10
101.5452480000000008
20
-70.0157229999999942
11
101.4799999999999898
21
-70.019999999999996
0
LINE
8
BLACK
6
CONTINUOUS
10
101.4799999999999898
20
-70.019999999999996
11
95.0568540000000013
21
-70.019999999999996
0
LINE
8
BLACK
6
CONTINUOUS
10
95.0568540000000013
20
-70.019999999999996
11
95.0305520000000001
21
-70.1522279999999938
0
LINE
8
BLACK
6
CONTINUOUS
10
95.0305520000000001
20
-70.1522279999999938
11
94.9705369999999931
21
-70.2971170000000001
0
LINE
8
BLACK
6
CONTINUOUS
10
94.9705369999999931
20
-70.2971170000000001
11
94.8834079999999886
21
-70.4275149999999996
0
LINE
8
BLACK
6
CONTINUOUS
10
94.8834079999999886
20
-70.4275149999999996
11
94.7725149999999985
21
-70.5384079999999898
0
LINE
8
BLACK
6
CONTINUOUS
10
94.7725149999999985
20
-70.5384079999999898
11
94.7650000000000006
21
-70.5434290000000033
0
LINE
8
BLACK
6
CONTINUOUS
10
94.7650000000000006
20
-70.5434290000000033
11
94.7650000000000006
21
-70.7199999999999989
0
LINE
8
BLACK
6
CONTINUOUS
10
94.7650000000000006
20
-70.7199999999999989
11
91.7650000000000006
21
-70.7199999999999989
0
LINE
8
BLACK
6
CONTINUOUS
10
91.7650000000000006
20
-70.7199999999999989
11
91.7650000000000006
21
-69.1199999999999903
0
LINE
8
BLACK
6
CONTINUOUS
10
91.7650000000000006
20
-69.1199999999999903
11
94.0013749999999959
21
-69.1199999999999903
0
LINE
8
BLACK
6
CONTINUOUS
10
94.0013749999999959
20
-69.1199999999999903
11
94.1086579999999913
21
-69.0580599999999976
0
LINE
8
BLACK
6
CONTINUOUS
10
94.1086579999999913
20
-69.0580599999999976
11
94.2347369999999955
21
-69.0242779999999954
0
LINE
8
BLACK
6
CONTINUOUS
10
94.2347369999999955
20
-69.0242779999999954
11
94.2999999999999972
21
-69.019999999999996
0
LINE
8
BLACK
6
CONTINUOUS
10
94.2999999999999972
20
-69.019999999999996
11
101.2728939999999938
21
-69.019999999999996
0
LINE
8
BLACK
6
CONTINUOUS
10
101.2728939999999938
20
-69.019999999999996
11
106.
21
-64.292894000000004
0
LINE
8
BLACK
6
CONTINUOUS
10
106.
20
-64.292894000000004
11
106.
21
-58.
0
LINE
8
BLACK
6
CONTINUOUS
10
106.
20
-58.
11
106.0042770000000019
21
-57.934751999999996
0
LINE
8
BLACK
6
CONTINUOUS
10
106.0042770000000019
20
-57.934751999999996
11
106.0042770000000019
21
-57.9347369999999984
0
LINE
8
BLACK
6
CONTINUOUS
10
106.0042770000000019
20
-57.9347369999999984
11
106.0380600000000015
21
-57.8086579999999941
0
LINE
8
BLACK
6
CONTINUOUS
10
106.0380600000000015
20
-57.8086579999999941
11
106.103322999999989
21
-57.6956190000000007
0
LINE
8
BLACK
6
CONTINUOUS
10
106.103322999999989
20
-57.6956190000000007
11
106.1033379999999937
21
-57.6956029999999984
0
LINE
8
BLACK
6
CONTINUOUS
10
106.1033379999999937
20
-57.6956029999999984
11
106.1464469999999949
21
-57.6464469999999949
0
LINE
8
BLACK
6
CONTINUOUS
10
106.1464469999999949
20
-57.6464469999999949
11
109.6464459999999974
21
-54.1464469999999949
0
LINE
8
BLACK
6
CONTINUOUS
10
109.6464459999999974
20
-54.1464469999999949
11
109.6956100000000021
21
-54.1033309999999972
0
LINE
8
BLACK
6
CONTINUOUS
10
109.6956100000000021
20
-54.1033309999999972
11
109.6956189999999935
21
-54.1033229999999961
0
LINE
8
BLACK
6
CONTINUOUS
10
109.6956189999999935
20
-54.1033229999999961
11
109.8086579999999941
21
-54.0380599999999944
0
LINE
8
BLACK
6
CONTINUOUS
10
109.8086579999999941
20
-54.0380599999999944
11
109.9347369999999984
21
-54.0042769999999948
0
LINE
8
BLACK
6
CONTINUOUS
10
109.9347369999999984
20
-54.0042769999999948
11
109.9347519999999889
21
-54.0042769999999948
0
LINE
8
BLACK
6
CONTINUOUS
10
109.9347519999999889
20
-54.0042769999999948
11
110.
21
-54.
0
LINE
8
BLACK
6
CONTINUOUS
10
110.
20
-54.
11
118.5
21
-54.
0
LINE
8
BLACK
6
CONTINUOUS
10
118.5
20
-54.
11
118.5652479999999969
21
-54.0042769999999948
0
LINE
8
BLACK
6
CONTINUOUS
10
112.
20
-70.7199999999999989
11
109.
21
-70.7199999999999989
0
LINE
8
BLACK
6
CONTINUOUS
10
109.
20
-70.7199999999999989
11
109.
21
-70.5434290000000033
0
LINE
8
BLACK
6
CONTINUOUS
10
109.
20
-70.5434290000000033
11
108.9924850000000021
21
-70.5384079999999898
0
LINE
8
BLACK
6
CONTINUOUS
10
108.9924850000000021
20
-70.5384079999999898
11
108.8815919999999977
21
-70.4275149999999996
0
LINE
8
BLACK
6
CONTINUOUS
10
108.8815919999999977
20
-70.4275149999999996
11
108.7944629999999933
21
-70.2971170000000001
0
LINE
8
BLACK
6
CONTINUOUS
10
108.7944629999999933
20
-70.2971170000000001
11
108.7344480000000004
21
-70.1522279999999938
0
LINE
8
BLACK
6
CONTINUOUS
10
108.7344480000000004
20
-70.1522279999999938
11
108.7038519999999977
21
-69.9984139999999968
0
LINE
8
BLACK
6
CONTINUOUS
10
108.7038519999999977
20
-69.9984139999999968
11
108.7038519999999977
21
-69.8415859999999924
0
LINE
8
BLACK
6
CONTINUOUS
10
108.7038519999999977
20
-69.8415859999999924
11
108.7344480000000004
21
-69.6877719999999954
0
LINE
8
BLACK
6
CONTINUOUS
10
108.7344480000000004
20
-69.6877719999999954
11
108.7944629999999933
21
-69.5428830000000033
0
LINE
8
BLACK
6
CONTINUOUS
10
108.7944629999999933
20
-69.5428830000000033
11
108.8815919999999977
21
-69.4124850000000038
0
LINE
8
BLACK
6
CONTINUOUS
10
108.8815919999999977
20
-69.4124850000000038
11
108.9924850000000021
21
-69.3015919999999994
0
LINE
8
BLACK
6
CONTINUOUS
10
108.9924850000000021
20
-69.3015919999999994
11
109.
21
-69.2965700000000027
0
LINE
8
BLACK
6
CONTINUOUS
10
109.
20
-69.2965700000000027
11
109.
21
-69.1199999999999903
0
LINE
8
BLACK
6
CONTINUOUS
10
109.
20
-69.1199999999999903
11
112.
21
-69.1199999999999903
0
LINE
8
BLACK
6
CONTINUOUS
10
112.
20
-69.1199999999999903
11
112.
21
-70.7199999999999989
0
LINE
8
BLACK
6
CONTINUOUS
10
117.3047989999999885
20
-57.9952129999999997
11
117.4949669999999884
21
-58.0739829999999984
0
LINE
8
BLACK
6
CONTINUOUS
10
117.4949669999999884
20
-58.0739829999999984
11
117.6661129999999957
21
-58.1883389999999991
0
LINE
8
BLACK
6
CONTINUOUS
10
117.6661129999999957
20
-58.1883389999999991
11
117.8116610000000009
21
-58.3338869999999972
0
LINE
8
BLACK
6
CONTINUOUS
10
117.8116610000000009
20
-58.3338869999999972
11
117.9260170000000016
21
-58.5050329999999974
0
LINE
8
BLACK
6
CONTINUOUS
10
117.9260170000000016
20
-58.5050329999999974
11
118.0047869999999932
21
-58.6952009999999973
0
LINE
8
BLACK
6
CONTINUOUS
10
118.0047869999999932
20
-58.6952009999999973
11
118.044944000000001
21
-58.8970819999999975
0
LINE
8
BLACK
6
CONTINUOUS
10
118.044944000000001
20
-58.8970819999999975
11
118.044944000000001
21
-59.1029179999999954
0
LINE
8
BLACK
6
CONTINUOUS
10
118.044944000000001
20
-59.1029179999999954
11
118.0047869999999932
21
-59.3047989999999956
0
LINE
8
BLACK
6
CONTINUOUS
10
118.0047869999999932
20
-59.3047989999999956
11
117.9260170000000016
21
-59.4949669999999955
0
LINE
8
BLACK
6
CONTINUOUS
10
117.9260170000000016
20
-59.4949669999999955
11
117.8116610000000009
21
-59.6661129999999957
0
LINE
8
BLACK
6
CONTINUOUS
10
117.8116610000000009
20
-59.6661129999999957
11
117.6661129999999957
21
-59.8116609999999937
0
LINE
8
BLACK
6
CONTINUOUS
10
117.6661129999999957
20
-59.8116609999999937
11
117.4949669999999884
21
-59.9260169999999945
0
LINE
8
BLACK
6
CONTINUOUS
10
117.4949669999999884
20
-59.9260169999999945
11
117.3047989999999885
21
-60.0047870000000003
0
LINE
8
BLACK
6
CONTINUOUS
10
117.3047989999999885
20
-60.0047870000000003
11
117.1029179999999883
21
-60.0449439999999939
0
LINE
8
BLACK
6
CONTINUOUS
10
117.1029179999999883
20
-60.0449439999999939
11
116.8970819999999975
21
-60.0449439999999939
0
LINE
8
BLACK
6
CONTINUOUS
10
116.8970819999999975
20
-60.0449439999999939
11
116.6952009999999973
21
-60.0047870000000003
0
LINE
8
BLACK
6
CONTINUOUS
10
116.6952009999999973
20
-60.0047870000000003
11
116.5050329999999974
21
-59.9260169999999945
0
LINE
8
BLACK
6
CONTINUOUS
10
116.5050329999999974
20
-59.9260169999999945
11
116.3338869999999901
21
-59.8116609999999937
0
LINE
8
BLACK
6
CONTINUOUS
10
116.3338869999999901
20
-59.8116609999999937
11
116.1883389999999991
21
-59.6661129999999957
0
LINE
8
BLACK
6
CONTINUOUS
10
116.1883389999999991
20
-59.6661129999999957
11
116.0773459999999915
21
-59.5
0
LINE
8
BLACK
6
CONTINUOUS
10
116.0773459999999915
20
-59.5
11
115.707105999999996
21
-59.5
0
LINE
8
BLACK
6
CONTINUOUS
10
115.707105999999996
20
-59.5
11
114.
21
-61.207105999999996
0
LINE
8
BLACK
6
CONTINUOUS
10
114.
20
-61.207105999999996
11
114.
21
-61.692892999999998
0
LINE
8
BLACK
6
CONTINUOUS
10
114.
20
-61.692892999999998
11
117.3535529999999909
21
-65.0464460000000031
0
LINE
8
BLACK
6
CONTINUOUS
10
117.3535529999999909
20
-65.0464460000000031
11
117.3966679999999911
21
-65.0956099999999935
0
LINE
8
BLACK
6
CONTINUOUS
10
117.3966679999999911
20
-65.0956099999999935
11
117.3966769999999968
21
-65.0956189999999992
0
LINE
8
BLACK
6
CONTINUOUS
10
117.3966769999999968
20
-65.0956189999999992
11
117.4619399999999985
21
-65.2086579999999998
0
LINE
8
BLACK
6
CONTINUOUS
10
117.4619399999999985
20
-65.2086579999999998
11
117.4957229999999981
21
-65.3347370000000041
0
LINE
8
BLACK
6
CONTINUOUS
10
117.4957229999999981
20
-65.3347370000000041
11
117.4957229999999981
21
-65.3347519999999946
0
LINE
8
BLACK
6
CONTINUOUS
10
117.4957229999999981
20
-65.3347519999999946
11
117.5
21
-65.3999999999999915
0
LINE
8
BLACK
6
CONTINUOUS
10
117.5
20
-65.3999999999999915
11
117.5
21
-67.4173449999999974
0
LINE
8
BLACK
6
CONTINUOUS
10
117.5
20
-67.4173449999999974
11
117.6661129999999957
21
-67.5283390000000026
0
LINE
8
BLACK
6
CONTINUOUS
10
117.6661129999999957
20
-67.5283390000000026
11
117.8116610000000009
21
-67.6738869999999935
0
LINE
8
BLACK
6
CONTINUOUS
10
117.8116610000000009
20
-67.6738869999999935
11
117.9260170000000016
21
-67.8450330000000008
0
LINE
8
BLACK
6
CONTINUOUS
10
117.9260170000000016
20
-67.8450330000000008
11
118.0047869999999932
21
-68.0352010000000007
0
LINE
8
BLACK
6
CONTINUOUS
10
118.0047869999999932
20
-68.0352010000000007
11
118.044944000000001
21
-68.2370820000000009
0
LINE
8
BLACK
6
CONTINUOUS
10
118.044944000000001
20
-68.2370820000000009
11
118.044944000000001
21
-68.4429179999999917
0
LINE
8
BLACK
6
CONTINUOUS
10
118.044944000000001
20
-68.4429179999999917
11
118.0047869999999932
21
-68.6447989999999919
0
LINE
8
BLACK
6
CONTINUOUS
10
118.0047869999999932
20
-68.6447989999999919
11
117.9260170000000016
21
-68.8349669999999918
0
LINE
8
BLACK
6
CONTINUOUS
10
117.9260170000000016
20
-68.8349669999999918
11
117.8116610000000009
21
-69.0061129999999991
0
LINE
8
BLACK
6
CONTINUOUS
10
117.8116610000000009
20
-69.0061129999999991
11
117.6661129999999957
21
-69.1516609999999901
0
LINE
8
BLACK
6
CONTINUOUS
10
117.6661129999999957
20
-69.1516609999999901
11
117.4949669999999884
21
-69.2660169999999908
0
LINE
8
BLACK
6
CONTINUOUS
10
117.4949669999999884
20
-69.2660169999999908
11
117.3047989999999885
21
-69.3447869999999966
0
LINE
8
BLACK
6
CONTINUOUS
10
117.3047989999999885
20
-69.3447869999999966
11
117.1029179999999883
21
-69.3849439999999902
0
LINE
8
BLACK
6
CONTINUOUS
10
117.1029179999999883
20
-69.3849439999999902
11
116.8970819999999975
21
-69.3849439999999902
0
LINE
8
BLACK
6
CONTINUOUS
10
116.8970819999999975
20
-69.3849439999999902
11
116.6952009999999973
21
-69.3447869999999966
0
LINE
8
BLACK
6
CONTINUOUS
10
116.6952009999999973
20
-69.3447869999999966
11
116.5050329999999974
21
-69.2660169999999908
0
LINE
8
BLACK
6
CONTINUOUS
10
116.5050329999999974
20
-69.2660169999999908
11
116.3338869999999901
21
-69.1516609999999901
0
LINE
8
BLACK
6
CONTINUOUS
10
116.3338869999999901
20
-69.1516609999999901
11
116.1883389999999991
21
-69.0061129999999991
0
LINE
8
BLACK
6
CONTINUOUS
10
116.1883389999999991
20
-69.0061129999999991
11
116.0739829999999984
21
-68.8349669999999918
0
LINE
8
BLACK
6
CONTINUOUS
10
116.0739829999999984
20
-68.8349669999999918
11
115.9952129999999926
21
-68.6447989999999919
0
LINE
8
BLACK
6
CONTINUOUS
10
115.9952129999999926
20
-68.6447989999999919
11
115.955055999999999
21
-68.4429179999999917
0
LINE
8
BLACK
6
CONTINUOUS
10
115.955055999999999
20
-68.4429179999999917
11
115.955055999999999
21
-68.2370820000000009
0
LINE
8
BLACK
6
CONTINUOUS
10
115.955055999999999
20
-68.2370820000000009
11
115.9952129999999926
21
-68.0352010000000007
0
LINE
8
BLACK
6
CONTINUOUS
10
115.9952129999999926
20
-68.0352010000000007
11
116.0739829999999984
21
-67.8450330000000008
0
LINE
8
BLACK
6
CONTINUOUS
10
116.0739829999999984
20
-67.8450330000000008
11
116.1883389999999991
21
-67.6738869999999935
0
LINE
8
BLACK
6
CONTINUOUS
10
116.1883389999999991
20
-67.6738869999999935
11
116.3338869999999901
21
-67.5283390000000026
0
LINE
8
BLACK
6
CONTINUOUS
10
116.3338869999999901
20
-67.5283390000000026
11
116.5
21
-67.4173449999999974
0
LINE
8
BLACK
6
CONTINUOUS
10
116.5
20
-67.4173449999999974
11
116.5
21
-65.6071060000000017
0
LINE
8
BLACK
6
CONTINUOUS
10
116.5
20
-65.6071060000000017
11
113.2928939999999898
21
-62.3999999999999986
0
LINE
8
BLACK
6
CONTINUOUS
10
113.2928939999999898
20
-62.3999999999999986
11
112.
21
-62.3999999999999986
0
LINE
8
BLACK
6
CONTINUOUS
10
112.
20
-62.3999999999999986
11
112.
21
-63.0999999999999943
0
LINE
8
BLACK
6
CONTINUOUS
10
112.
20
-63.0999999999999943
11
109.
21
-63.0999999999999943
0
LINE
8
BLACK
6
CONTINUOUS
10
109.
20
-63.0999999999999943
11
109.
21
-62.9234289999999987
0
LINE
8
BLACK
6
CONTINUOUS
10
109.
20
-62.9234289999999987
11
108.9924850000000021
21
-62.9184079999999994
0
LINE
8
BLACK
6
CONTINUOUS
10
108.9924850000000021
20
-62.9184079999999994
11
108.8815919999999977
21
-62.8075149999999951
0
LINE
8
BLACK
6
CONTINUOUS
10
108.8815919999999977
20
-62.8075149999999951
11
108.7944629999999933
21
-62.6771169999999955
0
LINE
8
BLACK
6
CONTINUOUS
10
108.7944629999999933
20
-62.6771169999999955
11
108.7344480000000004
21
-62.5322279999999964
0
LINE
8
BLACK
6
CONTINUOUS
10
108.7344480000000004
20
-62.5322279999999964
11
108.7038519999999977
21
-62.3784139999999994
0
LINE
8
BLACK
6
CONTINUOUS
10
108.7038519999999977
20
-62.3784139999999994
11
108.7038519999999977
21
-62.221585999999995
0
LINE
8
BLACK
6
CONTINUOUS
10
108.7038519999999977
20
-62.221585999999995
11
108.7344480000000004
21
-62.0677719999999979
0
LINE
8
BLACK
6
CONTINUOUS
10
108.7344480000000004
20
-62.0677719999999979
11
108.7944629999999933
21
-61.9228829999999988
0
LINE
8
BLACK
6
CONTINUOUS
10
108.7944629999999933
20
-61.9228829999999988
11
108.8815919999999977
21
-61.7924849999999992
0
LINE
8
BLACK
6
CONTINUOUS
10
108.8815919999999977
20
-61.7924849999999992
11
108.9924850000000021
21
-61.6815919999999949
0
LINE
8
BLACK
6
CONTINUOUS
10
108.9924850000000021
20
-61.6815919999999949
11
109.
21
-61.6765699999999981
0
LINE
8
BLACK
6
CONTINUOUS
10
109.
20
-61.6765699999999981
11
109.
21
-61.5
0
LINE
8
BLACK
6
CONTINUOUS
10
109.
20
-61.5
11
109.2363749999999953
21
-61.5
0
LINE
8
BLACK
6
CONTINUOUS
10
109.2363749999999953
20
-61.5
11
109.3436579999999907
21
-61.4380600000000001
0
LINE
8
BLACK
6
CONTINUOUS
10
109.3436579999999907
20
-61.4380600000000001
11
109.469736999999995
21
-61.4042779999999979
0
LINE
8
BLACK
6
CONTINUOUS
10
109.469736999999995
20
-61.4042779999999979
11
109.5349999999999966
21
-61.3999999999999986
0
LINE
8
BLACK
6
CONTINUOUS
10
109.5349999999999966
20
-61.3999999999999986
11
113.
21
-61.3999999999999986
0
LINE
8
BLACK
6
CONTINUOUS
10
113.
20
-61.3999999999999986
11
113.
21
-61.
0
LINE
8
BLACK
6
CONTINUOUS
10
113.
20
-61.
11
113.0042770000000019
21
-60.934751999999996
0
LINE
8
BLACK
6
CONTINUOUS
10
113.0042770000000019
20
-60.934751999999996
11
113.0042770000000019
21
-60.9347369999999984
0
LINE
8
BLACK
6
CONTINUOUS
10
113.0042770000000019
20
-60.9347369999999984
11
113.0380600000000015
21
-60.8086579999999941
0
LINE
8
BLACK
6
CONTINUOUS
10
113.0380600000000015
20
-60.8086579999999941
11
113.103322999999989
21
-60.6956190000000007
0
LINE
8
BLACK
6
CONTINUOUS
10
113.103322999999989
20
-60.6956190000000007
11
113.1033379999999937
21
-60.6956029999999984
0
LINE
8
BLACK
6
CONTINUOUS
10
113.1033379999999937
20
-60.6956029999999984
11
113.1464469999999949
21
-60.6464469999999949
0
LINE
8
BLACK
6
CONTINUOUS
10
113.1464469999999949
20
-60.6464469999999949
11
115.1464469999999949
21
-58.6464469999999949
0
LINE
8
BLACK
6
CONTINUOUS
10
115.1464469999999949
20
-58.6464469999999949
11
115.1956099999999878
21
-58.6033309999999972
0
LINE
8
BLACK
6
CONTINUOUS
10
115.1956099999999878
20
-58.6033309999999972
11
115.1956189999999935
21
-58.6033229999999961
0
LINE
8
BLACK
6
CONTINUOUS
10
115.1956189999999935
20
-58.6033229999999961
11
115.3086579999999941
21
-58.5380599999999944
0
LINE
8
BLACK
6
CONTINUOUS
10
115.3086579999999941
20
-58.5380599999999944
11
115.4347369999999984
21
-58.5042769999999948
0
LINE
8
BLACK
6
CONTINUOUS
10
115.4347369999999984
20
-58.5042769999999948
11
115.4347519999999889
21
-58.5042769999999948
0
LINE
8
BLACK
6
CONTINUOUS
10
115.4347519999999889
20
-58.5042769999999948
11
115.5
21
-58.5
0
LINE
8
BLACK
6
CONTINUOUS
10
115.5
20
-58.5
11
116.0773459999999915
21
-58.5
0
LINE
8
BLACK
6
CONTINUOUS
10
116.0773459999999915
20
-58.5
11
116.1883389999999991
21
-58.3338869999999972
0
LINE
8
BLACK
6
CONTINUOUS
10
116.1883389999999991
20
-58.3338869999999972
11
116.3338869999999901
21
-58.1883389999999991
0
LINE
8
BLACK
6
CONTINUOUS
10
116.3338869999999901
20
-58.1883389999999991
11
116.5050329999999974
21
-58.0739829999999984
0
LINE
8
BLACK
6
CONTINUOUS
10
116.5050329999999974
20
-58.0739829999999984
11
116.6952009999999973
21
-57.9952129999999997
0
LINE
8
BLACK
6
CONTINUOUS
10
116.6952009999999973
20
-57.9952129999999997
11
116.8970819999999975
21
-57.955055999999999
0
LINE
8
BLACK
6
CONTINUOUS
10
116.8970819999999975
20
-57.955055999999999
11
117.1029179999999883
21
-57.955055999999999
0
LINE
8
BLACK
6
CONTINUOUS
10
117.1029179999999883
20
-57.955055999999999
11
117.3047989999999885
21
-57.9952129999999997
0
LINE
8
BLACK
6
CONTINUOUS
10
94.7650000000000006
20
-66.7565699999999964
11
94.7725149999999985
21
-66.7615919999999932
0
LINE
8
BLACK
6
CONTINUOUS
10
94.7725149999999985
20
-66.7615919999999932
11
94.8834079999999886
21
-66.8724849999999975
0
LINE
8
BLACK
6
CONTINUOUS
10
94.8834079999999886
20
-66.8724849999999975
11
94.9705369999999931
21
-67.0028829999999971
0
LINE
8
BLACK
6
CONTINUOUS
10
94.9705369999999931
20
-67.0028829999999971
11
95.0305520000000001
21
-67.1477720000000033
0
LINE
8
BLACK
6
CONTINUOUS
10
95.0305520000000001
20
-67.1477720000000033
11
95.0611479999999887
21
-67.3015860000000004
0
LINE
8
BLACK
6
CONTINUOUS
10
95.0611479999999887
20
-67.3015860000000004
11
95.0611479999999887
21
-67.4584139999999906
0
LINE
8
BLACK
6
CONTINUOUS
10
95.0611479999999887
20
-67.4584139999999906
11
95.0305520000000001
21
-67.6122280000000018
0
LINE
8
BLACK
6
CONTINUOUS
10
95.0305520000000001
20
-67.6122280000000018
11
94.9705369999999931
21
-67.7571169999999938
0
LINE
8
BLACK
6
CONTINUOUS
10
94.9705369999999931
20
-67.7571169999999938
11
94.8834079999999886
21
-67.8875149999999934
0
LINE
8
BLACK
6
CONTINUOUS
10
94.8834079999999886
20
-67.8875149999999934
11
94.7725149999999985
21
-67.9984079999999977
0
LINE
8
BLACK
6
CONTINUOUS
10
94.7725149999999985
20
-67.9984079999999977
11
94.7650000000000006
21
-68.003428999999997
0
LINE
8
BLACK
6
CONTINUOUS
10
94.7650000000000006
20
-68.003428999999997
11
94.7650000000000006
21
-68.1799999999999926
0
LINE
8
BLACK
6
CONTINUOUS
10
94.7650000000000006
20
-68.1799999999999926
11
91.7650000000000006
21
-68.1799999999999926
0
LINE
8
BLACK
6
CONTINUOUS
10
91.7650000000000006
20
-68.1799999999999926
11
91.7650000000000006
21
-66.5799999999999983
0
LINE
8
BLACK
6
CONTINUOUS
10
91.7650000000000006
20
-66.5799999999999983
11
94.7650000000000006
21
-66.5799999999999983
0
LINE
8
BLACK
6
CONTINUOUS
10
94.7650000000000006
20
-66.5799999999999983
11
94.7650000000000006
21
-66.7565699999999964
0
LINE
8
BLACK
6
CONTINUOUS
10
112.
20
-68.1799999999999926
11
109.
21
-68.1799999999999926
0
LINE
8
BLACK
6
CONTINUOUS
10
109.
20
-68.1799999999999926
11
109.
21
-68.003428999999997
0
LINE
8
BLACK
6
CONTINUOUS
10
109.
20
-68.003428999999997
11
108.9924850000000021
21
-67.9984079999999977
0
LINE
8
BLACK
6
CONTINUOUS
10
108.9924850000000021
20
-67.9984079999999977
11
108.8815919999999977
21
-67.8875149999999934
0
LINE
8
BLACK
6
CONTINUOUS
10
108.8815919999999977
20
-67.8875149999999934
11
108.7944629999999933
21
-67.7571169999999938
0
LINE
8
BLACK
6
CONTINUOUS
10
108.7944629999999933
20
-67.7571169999999938
11
108.7344480000000004
21
-67.6122280000000018
0
LINE
8
BLACK
6
CONTINUOUS
10
108.7344480000000004
20
-67.6122280000000018
11
108.7038519999999977
21
-67.4584139999999906
0
LINE
8
BLACK
6
CONTINUOUS
10
108.7038519999999977
20
-67.4584139999999906
11
108.7038519999999977
21
-67.3015860000000004
0
LINE
8
BLACK
6
CONTINUOUS
10
108.7038519999999977
20
-67.3015860000000004
11
108.7344480000000004
21
-67.1477720000000033
0
LINE
8
BLACK
6
CONTINUOUS
10
108.7344480000000004
20
-67.1477720000000033
11
108.7944629999999933
21
-67.0028829999999971
0
LINE
8
BLACK
6
CONTINUOUS
10
108.7944629999999933
20
-67.0028829999999971
11
108.8815919999999977
21
-66.8724849999999975
0
LINE
8
BLACK
6
CONTINUOUS
10
108.8815919999999977
20
-66.8724849999999975
11
108.9924850000000021
21
-66.7615919999999932
0
LINE
8
BLACK
6
CONTINUOUS
10
108.9924850000000021
20
-66.7615919999999932
11
109.
21
-66.7565699999999964
0
LINE
8
BLACK
6
CONTINUOUS
10
109.
20
-66.7565699999999964
11
109.
21
-66.5799999999999983
0
LINE
8
BLACK
6
CONTINUOUS
10
109.
20
-66.5799999999999983
11
112.
21
-66.5799999999999983
0
LINE
8
BLACK
6
CONTINUOUS
10
112.
20
-66.5799999999999983
11
112.
21
-68.1799999999999926
0
LINE
8
BLACK
6
CONTINUOUS
10
98.4799999999999898
20
-67.7800000000000011
11
96.0799999999999983
21
-67.7800000000000011
0
LINE
8
BLACK
6
CONTINUOUS
10
96.0799999999999983
20
-67.7800000000000011
11
96.0799999999999983
21
-66.5799999999999983
0
LINE
8
BLACK
6
CONTINUOUS
10
96.0799999999999983
20
-66.5799999999999983
11
98.4799999999999898
21
-66.5799999999999983
0
LINE
8
BLACK
6
CONTINUOUS
10
98.4799999999999898
20
-66.5799999999999983
11
98.4799999999999898
21
-67.7800000000000011
0
LINE
8
BLACK
6
CONTINUOUS
10
98.4799999999999898
20
-65.6799999999999926
11
96.0799999999999983
21
-65.6799999999999926
0
LINE
8
BLACK
6
CONTINUOUS
10
96.0799999999999983
20
-65.6799999999999926
11
96.0799999999999983
21
-64.480000000000004
0
LINE
8
BLACK
6
CONTINUOUS
10
96.0799999999999983
20
-64.480000000000004
11
98.4799999999999898
21
-64.480000000000004
0
LINE
8
BLACK
6
CONTINUOUS
10
98.4799999999999898
20
-64.480000000000004
11
98.4799999999999898
21
-65.6799999999999926
0
LINE
8
BLACK
6
CONTINUOUS
10
100.8396099999999933
20
-63.2256719999999959
11
100.9752569999999992
21
-63.3039879999999968
0
LINE
8
BLACK
6
CONTINUOUS
10
100.9752569999999992
20
-63.3039879999999968
11
101.0860119999999966
21
-63.4147429999999943
0
LINE
8
BLACK
6
CONTINUOUS
10
101.0860119999999966
20
-63.4147429999999943
11
101.1643279999999976
21
-63.5503900000000002
0
LINE
8
BLACK
6
CONTINUOUS
10
101.1643279999999976
20
-63.5503900000000002
11
101.204866999999993
21
-63.7016840000000002
0
LINE
8
BLACK
6
CONTINUOUS
10
101.204866999999993
20
-63.7016840000000002
11
101.204866999999993
21
-63.858315999999995
0
LINE
8
BLACK
6
CONTINUOUS
10
101.204866999999993
20
-63.858315999999995
11
101.1643279999999976
21
-64.009609999999995
0
LINE
8
BLACK
6
CONTINUOUS
10
101.1643279999999976
20
-64.009609999999995
11
101.0860119999999966
21
-64.1452570000000009
0
LINE
8
BLACK
6
CONTINUOUS
10
101.0860119999999966
20
-64.1452570000000009
11
100.9752569999999992
21
-64.2560119999999984
0
LINE
8
BLACK
6
CONTINUOUS
10
100.9752569999999992
20
-64.2560119999999984
11
100.8396099999999933
21
-64.3343279999999993
0
LINE
8
BLACK
6
CONTINUOUS
10
100.8396099999999933
20
-64.3343279999999993
11
100.6883160000000004
21
-64.3748669999999947
0
LINE
8
BLACK
6
CONTINUOUS
10
100.6883160000000004
20
-64.3748669999999947
11
100.5316839999999985
21
-64.3748669999999947
0
LINE
8
BLACK
6
CONTINUOUS
10
100.5316839999999985
20
-64.3748669999999947
11
100.3803899999999913
21
-64.3343279999999993
0
LINE
8
BLACK
6
CONTINUOUS
10
100.3803899999999913
20
-64.3343279999999993
11
100.2447429999999997
21
-64.2560119999999984
0
LINE
8
BLACK
6
CONTINUOUS
10
100.2447429999999997
20
-64.2560119999999984
11
100.1339880000000022
21
-64.1452570000000009
0
LINE
8
BLACK
6
CONTINUOUS
10
100.1339880000000022
20
-64.1452570000000009
11
100.0556720000000013
21
-64.009609999999995
0
LINE
8
BLACK
6
CONTINUOUS
10
100.0556720000000013
20
-64.009609999999995
11
100.0151329999999916
21
-63.858315999999995
0
LINE
8
BLACK
6
CONTINUOUS
10
100.0151329999999916
20
-63.858315999999995
11
100.0151329999999916
21
-63.7016840000000002
0
LINE
8
BLACK
6
CONTINUOUS
10
100.0151329999999916
20
-63.7016840000000002
11
100.0556720000000013
21
-63.5503900000000002
0
LINE
8
BLACK
6
CONTINUOUS
10
100.0556720000000013
20
-63.5503900000000002
11
100.1339880000000022
21
-63.4147429999999943
0
LINE
8
BLACK
6
CONTINUOUS
10
100.1339880000000022
20
-63.4147429999999943
11
100.2447429999999997
21
-63.3039879999999968
0
LINE
8
BLACK
6
CONTINUOUS
10
100.2447429999999997
20
-63.3039879999999968
11
100.3803899999999913
21
-63.2256719999999959
0
LINE
8
BLACK
6
CONTINUOUS
10
100.3803899999999913
20
-63.2256719999999959
11
100.5316839999999985
21
-63.1851330000000004
0
LINE
8
BLACK
6
CONTINUOUS
10
100.5316839999999985
20
-63.1851330000000004
11
100.6883160000000004
21
-63.1851330000000004
0
LINE
8
BLACK
6
CONTINUOUS
10
100.6883160000000004
20
-63.1851330000000004
11
100.8396099999999933
21
-63.2256719999999959
0
LINE
8
BLACK
6
CONTINUOUS
10
103.3796099999999996
20
-63.2256719999999959
11
103.5152569999999912
21
-63.3039879999999968
0
LINE
8
BLACK
6
CONTINUOUS
10
103.5152569999999912
20
-63.3039879999999968
11
103.6260119999999887
21
-63.4147429999999943
0
LINE
8
BLACK
6
CONTINUOUS
10
103.6260119999999887
20
-63.4147429999999943
11
103.7043279999999896
21
-63.5503900000000002
0
LINE
8
BLACK
6
CONTINUOUS
10
103.7043279999999896
20
-63.5503900000000002
11
103.7448669999999993
21
-63.7016840000000002
0
LINE
8
BLACK
6
CONTINUOUS
10
103.7448669999999993
20
-63.7016840000000002
11
103.7448669999999993
21
-63.858315999999995
0
LINE
8
BLACK
6
CONTINUOUS
10
103.7448669999999993
20
-63.858315999999995
11
103.7043279999999896
21
-64.009609999999995
0
LINE
8
BLACK
6
CONTINUOUS
10
103.7043279999999896
20
-64.009609999999995
11
103.6260119999999887
21
-64.1452570000000009
0
LINE
8
BLACK
6
CONTINUOUS
10
103.6260119999999887
20
-64.1452570000000009
11
103.5152569999999912
21
-64.2560119999999984
0
LINE
8
BLACK
6
CONTINUOUS
10
103.5152569999999912
20
-64.2560119999999984
11
103.3796099999999996
21
-64.3343279999999993
0
LINE
8
BLACK
6
CONTINUOUS
10
103.3796099999999996
20
-64.3343279999999993
11
103.2283159999999924
21
-64.3748669999999947
0
LINE
8
BLACK
6
CONTINUOUS
10
103.2283159999999924
20
-64.3748669999999947
11
103.0716839999999905
21
-64.3748669999999947
0
LINE
8
BLACK
6
CONTINUOUS
10
103.0716839999999905
20
-64.3748669999999947
11
102.9203899999999976
21
-64.3343279999999993
0
LINE
8
BLACK
6
CONTINUOUS
10
102.9203899999999976
20
-64.3343279999999993
11
102.7847429999999918
21
-64.2560119999999984
0
LINE
8
BLACK
6
CONTINUOUS
10
102.7847429999999918
20
-64.2560119999999984
11
102.6739879999999943
21
-64.1452570000000009
0
LINE
8
BLACK
6
CONTINUOUS
10
102.6739879999999943
20
-64.1452570000000009
11
102.5956719999999933
21
-64.009609999999995
0
LINE
8
BLACK
6
CONTINUOUS
10
102.5956719999999933
20
-64.009609999999995
11
102.5551329999999979
21
-63.858315999999995
0
LINE
8
BLACK
6
CONTINUOUS
10
102.5551329999999979
20
-63.858315999999995
11
102.5551329999999979
21
-63.7016840000000002
0
LINE
8
BLACK
6
CONTINUOUS
10
102.5551329999999979
20
-63.7016840000000002
11
102.5956719999999933
21
-63.5503900000000002
0
LINE
8
BLACK
6
CONTINUOUS
10
102.5956719999999933
20
-63.5503900000000002
11
102.6739879999999943
21
-63.4147429999999943
0
LINE
8
BLACK
6
CONTINUOUS
10
102.6739879999999943
20
-63.4147429999999943
11
102.7847429999999918
21
-63.3039879999999968
0
LINE
8
BLACK
6
CONTINUOUS
10
102.7847429999999918
20
-63.3039879999999968
11
102.9203899999999976
21
-63.2256719999999959
0
LINE
8
BLACK
6
CONTINUOUS
10
102.9203899999999976
20
-63.2256719999999959
11
103.0716839999999905
21
-63.1851330000000004
0
LINE
8
BLACK
6
CONTINUOUS
10
103.0716839999999905
20
-63.1851330000000004
11
103.2283159999999924
21
-63.1851330000000004
0
LINE
8
BLACK
6
CONTINUOUS
10
103.2283159999999924
20
-63.1851330000000004
11
103.3796099999999996
21
-63.2256719999999959
0
LINE
8
BLACK
6
CONTINUOUS
10
100.8396099999999933
20
-60.6856719999999967
11
100.9752569999999992
21
-60.7639879999999977
0
LINE
8
BLACK
6
CONTINUOUS
10
100.9752569999999992
20
-60.7639879999999977
11
101.0860119999999966
21
-60.8747429999999952
0
LINE
8
BLACK
6
CONTINUOUS
10
101.0860119999999966
20
-60.8747429999999952
11
101.1643279999999976
21
-61.0103899999999939
0
LINE
8
BLACK
6
CONTINUOUS
10
101.1643279999999976
20
-61.0103899999999939
11
101.204866999999993
21
-61.1616839999999939
0
LINE
8
BLACK
6
CONTINUOUS
10
101.204866999999993
20
-61.1616839999999939
11
101.204866999999993
21
-61.3183159999999958
0
LINE
8
BLACK
6
CONTINUOUS
10
101.204866999999993
20
-61.3183159999999958
11
101.1643279999999976
21
-61.4696099999999959
0
LINE
8
BLACK
6
CONTINUOUS
10
101.1643279999999976
20
-61.4696099999999959
11
101.0860119999999966
21
-61.6052569999999946
0
LINE
8
BLACK
6
CONTINUOUS
10
101.0860119999999966
20
-61.6052569999999946
11
100.9752569999999992
21
-61.7160119999999992
0
LINE
8
BLACK
6
CONTINUOUS
10
100.9752569999999992
20
-61.7160119999999992
11
100.8396099999999933
21
-61.7943280000000001
0
LINE
8
BLACK
6
CONTINUOUS
10
100.8396099999999933
20
-61.7943280000000001
11
100.6883160000000004
21
-61.8348669999999956
0
LINE
8
BLACK
6
CONTINUOUS
10
100.6883160000000004
20
-61.8348669999999956
11
100.5316839999999985
21
-61.8348669999999956
0
LINE
8
BLACK
6
CONTINUOUS
10
100.5316839999999985
20
-61.8348669999999956
11
100.3803899999999913
21
-61.7943280000000001
0
LINE
8
BLACK
6
CONTINUOUS
10
100.3803899999999913
20
-61.7943280000000001
11
100.2447429999999997
21
-61.7160119999999992
0
LINE
8
BLACK
6
CONTINUOUS
10
100.2447429999999997
20
-61.7160119999999992
11
100.1339880000000022
21
-61.6052569999999946
0
LINE
8
BLACK
6
CONTINUOUS
10
100.1339880000000022
20
-61.6052569999999946
11
100.0556720000000013
21
-61.4696099999999959
0
LINE
8
BLACK
6
CONTINUOUS
10
100.0556720000000013
20
-61.4696099999999959
11
100.0151329999999916
21
-61.3183159999999958
0
LINE
8
BLACK
6
CONTINUOUS
10
100.0151329999999916
20
-61.3183159999999958
11
100.0151329999999916
21
-61.1616839999999939
0
LINE
8
BLACK
6
CONTINUOUS
10
100.0151329999999916
20
-61.1616839999999939
11
100.0556720000000013
21
-61.0103899999999939
0
LINE
8
BLACK
6
CONTINUOUS
10
100.0556720000000013
20
-61.0103899999999939
11
100.1339880000000022
21
-60.8747429999999952
0
LINE
8
BLACK
6
CONTINUOUS
10
100.1339880000000022
20
-60.8747429999999952
11
100.2447429999999997
21
-60.7639879999999977
0
LINE
8
BLACK
6
CONTINUOUS
10
100.2447429999999997
20
-60.7639879999999977
11
100.3803899999999913
21
-60.6856719999999967
0
LINE
8
BLACK
6
CONTINUOUS
10
100.3803899999999913
20
-60.6856719999999967
11
100.5316839999999985
21
-60.6451329999999942
0
LINE
8
BLACK
6
CONTINUOUS
10
100.5316839999999985
20
-60.6451329999999942
11
100.6883160000000004
21
-60.6451329999999942
0
LINE
8
BLACK
6
CONTINUOUS
10
100.6883160000000004
20
-60.6451329999999942
11
100.8396099999999933
21
-60.6856719999999967
0
LINE
8
BLACK
6
CONTINUOUS
10
103.3796099999999996
20
-60.6856719999999967
11
103.5152569999999912
21
-60.7639879999999977
0
LINE
8
BLACK
6
CONTINUOUS
10
103.5152569999999912
20
-60.7639879999999977
11
103.6260119999999887
21
-60.8747429999999952
0
LINE
8
BLACK
6
CONTINUOUS
10
103.6260119999999887
20
-60.8747429999999952
11
103.7043279999999896
21
-61.0103899999999939
0
LINE
8
BLACK
6
CONTINUOUS
10
103.7043279999999896
20
-61.0103899999999939
11
103.7448669999999993
21
-61.1616839999999939
0
LINE
8
BLACK
6
CONTINUOUS
10
103.7448669999999993
20
-61.1616839999999939
11
103.7448669999999993
21
-61.3183159999999958
0
LINE
8
BLACK
6
CONTINUOUS
10
103.7448669999999993
20
-61.3183159999999958
11
103.7043279999999896
21
-61.4696099999999959
0
LINE
8
BLACK
6
CONTINUOUS
10
103.7043279999999896
20
-61.4696099999999959
11
103.6260119999999887
21
-61.6052569999999946
0
LINE
8
BLACK
6
CONTINUOUS
10
103.6260119999999887
20
-61.6052569999999946
11
103.5152569999999912
21
-61.7160119999999992
0
LINE
8
BLACK
6
CONTINUOUS
10
103.5152569999999912
20
-61.7160119999999992
11
103.3796099999999996
21
-61.7943280000000001
0
LINE
8
BLACK
6
CONTINUOUS
10
103.3796099999999996
20
-61.7943280000000001
11
103.2283159999999924
21
-61.8348669999999956
0
LINE
8
BLACK
6
CONTINUOUS
10
103.2283159999999924
20
-61.8348669999999956
11
103.0716839999999905
21
-61.8348669999999956
0
LINE
8
BLACK
6
CONTINUOUS
10
103.0716839999999905
20
-61.8348669999999956
11
102.9203899999999976
21
-61.7943280000000001
0
LINE
8
BLACK
6
CONTINUOUS
10
102.9203899999999976
20
-61.7943280000000001
11
102.7847429999999918
21
-61.7160119999999992
0
LINE
8
BLACK
6
CONTINUOUS
10
102.7847429999999918
20
-61.7160119999999992
11
102.6739879999999943
21
-61.6052569999999946
0
LINE
8
BLACK
6
CONTINUOUS
10
102.6739879999999943
20
-61.6052569999999946
11
102.5956719999999933
21
-61.4696099999999959
0
LINE
8
BLACK
6
CONTINUOUS
10
102.5956719999999933
20
-61.4696099999999959
11
102.5551329999999979
21
-61.3183159999999958
0
LINE
8
BLACK
6
CONTINUOUS
10
102.5551329999999979
20
-61.3183159999999958
11
102.5551329999999979
21
-61.1616839999999939
0
LINE
8
BLACK
6
CONTINUOUS
10
102.5551329999999979
20
-61.1616839999999939
11
102.5956719999999933
21
-61.0103899999999939
0
LINE
8
BLACK
6
CONTINUOUS
10
102.5956719999999933
20
-61.0103899999999939
11
102.6739879999999943
21
-60.8747429999999952
0
LINE
8
BLACK
6
CONTINUOUS
10
102.6739879999999943
20
-60.8747429999999952
11
102.7847429999999918
21
-60.7639879999999977
0
LINE
8
BLACK
6
CONTINUOUS
10
102.7847429999999918
20
-60.7639879999999977
11
102.9203899999999976
21
-60.6856719999999967
0
LINE
8
BLACK
6
CONTINUOUS
10
102.9203899999999976
20
-60.6856719999999967
11
103.0716839999999905
21
-60.6451329999999942
0
LINE
8
BLACK
6
CONTINUOUS
10
103.0716839999999905
20
-60.6451329999999942
11
103.2283159999999924
21
-60.6451329999999942
0
LINE
8
BLACK
6
CONTINUOUS
10
103.2283159999999924
20
-60.6451329999999942
11
103.3796099999999996
21
-60.6856719999999967
0
LINE
8
BLACK
6
CONTINUOUS
10
117.3047989999999885
20
-55.4552130000000005
11
117.4949669999999884
21
-55.5339829999999992
0
LINE
8
BLACK
6
CONTINUOUS
10
117.4949669999999884
20
-55.5339829999999992
11
117.6661129999999957
21
-55.648339
0
LINE
8
BLACK
6
CONTINUOUS
10
117.6661129999999957
20
-55.648339
11
117.8116610000000009
21
-55.793886999999998
0
LINE
8
BLACK
6
CONTINUOUS
10
117.8116610000000009
20
-55.793886999999998
11
117.9260170000000016
21
-55.9650329999999983
0
LINE
8
BLACK
6
CONTINUOUS
10
117.9260170000000016
20
-55.9650329999999983
11
118.0047869999999932
21
-56.1552009999999981
0
LINE
8
BLACK
6
CONTINUOUS
10
118.0047869999999932
20
-56.1552009999999981
11
118.044944000000001
21
-56.3570819999999983
0
LINE
8
BLACK
6
CONTINUOUS
10
118.044944000000001
20
-56.3570819999999983
11
118.044944000000001
21
-56.5629179999999963
0
LINE
8
BLACK
6
CONTINUOUS
10
118.044944000000001
20
-56.5629179999999963
11
118.0047869999999932
21
-56.7647989999999965
0
LINE
8
BLACK
6
CONTINUOUS
10
118.0047869999999932
20
-56.7647989999999965
11
117.9260170000000016
21
-56.9549669999999963
0
LINE
8
BLACK
6
CONTINUOUS
10
117.9260170000000016
20
-56.9549669999999963
11
117.8116610000000009
21
-57.1261129999999966
0
LINE
8
BLACK
6
CONTINUOUS
10
117.8116610000000009
20
-57.1261129999999966
11
117.6661129999999957
21
-57.2716609999999946
0
LINE
8
BLACK
6
CONTINUOUS
10
117.6661129999999957
20
-57.2716609999999946
11
117.4949669999999884
21
-57.3860169999999954
0
LINE
8
BLACK
6
CONTINUOUS
10
117.4949669999999884
20
-57.3860169999999954
11
117.3047989999999885
21
-57.4647869999999941
0
LINE
8
BLACK
6
CONTINUOUS
10
117.3047989999999885
20
-57.4647869999999941
11
117.1029179999999883
21
-57.5049439999999947
0
LINE
8
BLACK
6
CONTINUOUS
10
117.1029179999999883
20
-57.5049439999999947
11
116.8970819999999975
21
-57.5049439999999947
0
LINE
8
BLACK
6
CONTINUOUS
10
116.8970819999999975
20
-57.5049439999999947
11
116.6952009999999973
21
-57.4647869999999941
0
LINE
8
BLACK
6
CONTINUOUS
10
116.6952009999999973
20
-57.4647869999999941
11
116.5050329999999974
21
-57.3860169999999954
0
LINE
8
BLACK
6
CONTINUOUS
10
116.5050329999999974
20
-57.3860169999999954
11
116.3338869999999901
21
-57.2716609999999946
0
LINE
8
BLACK
6
CONTINUOUS
10
116.3338869999999901
20
-57.2716609999999946
11
116.1883389999999991
21
-57.1261129999999966
0
LINE
8
BLACK
6
CONTINUOUS
10
116.1883389999999991
20
-57.1261129999999966
11
116.0773459999999915
21
-56.9600000000000009
0
LINE
8
BLACK
6
CONTINUOUS
10
116.0773459999999915
20
-56.9600000000000009
11
115.7471069999999997
21
-56.9600000000000009
0
LINE
8
BLACK
6
CONTINUOUS
10
115.7471069999999997
20
-56.9600000000000009
11
112.9935529999999915
21
-59.7135529999999974
0
LINE
8
BLACK
6
CONTINUOUS
10
112.9935529999999915
20
-59.7135529999999974
11
112.9443959999999976
21
-59.756660999999994
0
LINE
8
BLACK
6
CONTINUOUS
10
112.9443959999999976
20
-59.756660999999994
11
112.9443809999999928
21
-59.7566769999999963
0
LINE
8
BLACK
6
CONTINUOUS
10
112.9443809999999928
20
-59.7566769999999963
11
112.8313419999999923
21
-59.8219399999999979
0
LINE
8
BLACK
6
CONTINUOUS
10
112.8313419999999923
20
-59.8219399999999979
11
112.705262999999988
21
-59.8557229999999976
0
LINE
8
BLACK
6
CONTINUOUS
10
112.705262999999988
20
-59.8557229999999976
11
112.7052479999999974
21
-59.8557229999999976
0
LINE
8
BLACK
6
CONTINUOUS
10
112.7052479999999974
20
-59.8557229999999976
11
112.6400000000000006
21
-59.8599999999999994
0
LINE
8
BLACK
6
CONTINUOUS
10
112.6400000000000006
20
-59.8599999999999994
11
112.
21
-59.8599999999999994
0
LINE
8
BLACK
6
CONTINUOUS
10
112.
20
-59.8599999999999994
11
112.
21
-60.5599999999999952
0
LINE
8
BLACK
6
CONTINUOUS
10
112.
20
-60.5599999999999952
11
109.
21
-60.5599999999999952
0
LINE
8
BLACK
6
CONTINUOUS
10
109.
20
-60.5599999999999952
11
109.
21
-60.3834289999999996
0
LINE
8
BLACK
6
CONTINUOUS
10
109.
20
-60.3834289999999996
11
108.9924850000000021
21
-60.3784080000000003
0
LINE
8
BLACK
6
CONTINUOUS
10
108.9924850000000021
20
-60.3784080000000003
11
108.8815919999999977
21
-60.267514999999996
0
LINE
8
BLACK
6
CONTINUOUS
10
108.8815919999999977
20
-60.267514999999996
11
108.7944629999999933
21
-60.1371169999999964
0
LINE
8
BLACK
6
CONTINUOUS
10
108.7944629999999933
20
-60.1371169999999964
11
108.7344480000000004
21
-59.9922279999999972
0
LINE
8
BLACK
6
CONTINUOUS
10
108.7344480000000004
20
-59.9922279999999972
11
108.7038519999999977
21
-59.8384140000000002
0
LINE
8
BLACK
6
CONTINUOUS
10
108.7038519999999977
20
-59.8384140000000002
11
108.7038519999999977
21
-59.6815859999999958
0
LINE
8
BLACK
6
CONTINUOUS
10
108.7038519999999977
20
-59.6815859999999958
11
108.7344480000000004
21
-59.5277719999999988
0
LINE
8
BLACK
6
CONTINUOUS
10
108.7344480000000004
20
-59.5277719999999988
11
108.7944629999999933
21
-59.3828829999999996
0
LINE
8
BLACK
6
CONTINUOUS
10
108.7944629999999933
20
-59.3828829999999996
11
108.8815919999999977
21
-59.2524850000000001
0
LINE
8
BLACK
6
CONTINUOUS
10
108.8815919999999977
20
-59.2524850000000001
11
108.9924850000000021
21
-59.1415919999999957
0
LINE
8
BLACK
6
CONTINUOUS
10
108.9924850000000021
20
-59.1415919999999957
11
109.
21
-59.136569999999999
0
LINE
8
BLACK
6
CONTINUOUS
10
109.
20
-59.136569999999999
11
109.
21
-58.9600000000000009
0
LINE
8
BLACK
6
CONTINUOUS
10
109.
20
-58.9600000000000009
11
109.2363749999999953
21
-58.9600000000000009
0
LINE
8
BLACK
6
CONTINUOUS
10
109.2363749999999953
20
-58.9600000000000009
11
109.3436579999999907
21
-58.8980599999999939
0
LINE
8
BLACK
6
CONTINUOUS
10
109.3436579999999907
20
-58.8980599999999939
11
109.469736999999995
21
-58.8642779999999988
0
LINE
8
BLACK
6
CONTINUOUS
10
109.469736999999995
20
-58.8642779999999988
11
109.5349999999999966
21
-58.8599999999999994
0
LINE
8
BLACK
6
CONTINUOUS
10
109.5349999999999966
20
-58.8599999999999994
11
112.4328939999999903
21
-58.8599999999999994
0
LINE
8
BLACK
6
CONTINUOUS
10
112.4328939999999903
20
-58.8599999999999994
11
115.1864459999999895
21
-56.1064469999999957
0
LINE
8
BLACK
6
CONTINUOUS
10
115.1864459999999895
20
-56.1064469999999957
11
115.2356099999999941
21
-56.063330999999998
0
LINE
8
BLACK
6
CONTINUOUS
10
115.2356099999999941
20
-56.063330999999998
11
115.2356189999999998
21
-56.0633229999999969
0
LINE
8
BLACK
6
CONTINUOUS
10
115.2356189999999998
20
-56.0633229999999969
11
115.3486580000000004
21
-55.9980599999999953
0
LINE
8
BLACK
6
CONTINUOUS
10
115.3486580000000004
20
-55.9980599999999953
11
115.357379999999992
21
-55.9957229999999981
0
LINE
8
BLACK
6
CONTINUOUS
10
115.357379999999992
20
-55.9957229999999981
11
115.4747369999999904
21
-55.9642769999999956
0
LINE
8
BLACK
6
CONTINUOUS
10
115.4747369999999904
20
-55.9642769999999956
11
115.4747519999999952
21
-55.9642769999999956
0
LINE
8
BLACK
6
CONTINUOUS
10
115.4747519999999952
20
-55.9642769999999956
11
115.539999999999992
21
-55.9600000000000009
0
LINE
8
BLACK
6
CONTINUOUS
10
115.539999999999992
20
-55.9600000000000009
11
116.0773459999999915
21
-55.9600000000000009
0
LINE
8
BLACK
6
CONTINUOUS
10
116.0773459999999915
20
-55.9600000000000009
11
116.1883389999999991
21
-55.793886999999998
0
LINE
8
BLACK
6
CONTINUOUS
10
116.1883389999999991
20
-55.793886999999998
11
116.3338869999999901
21
-55.648339
0
LINE
8
BLACK
6
CONTINUOUS
10
116.3338869999999901
20
-55.648339
11
116.5050329999999974
21
-55.5339829999999992
0
LINE
8
BLACK
6
CONTINUOUS
10
116.5050329999999974
20
-55.5339829999999992
11
116.6952009999999973
21
-55.4552130000000005
0
LINE
8
BLACK
6
CONTINUOUS
10
116.6952009999999973
20
-55.4552130000000005
11
116.8970819999999975
21
-55.4150559999999999
0
LINE
8
BLACK
6
CONTINUOUS
10
116.8970819999999975
20
-55.4150559999999999
11
117.1029179999999883
21
-55.4150559999999999
0
LINE
8
BLACK
6
CONTINUOUS
10
117.1029179999999883
20
-55.4150559999999999
11
117.3047989999999885
21
-55.4552130000000005
0
LINE
8
BLACK
6
CONTINUOUS
10
100.8396099999999933
20
-58.1456719999999976
11
100.9752569999999992
21
-58.2239879999999985
0
LINE
8
BLACK
6
CONTINUOUS
10
100.9752569999999992
20
-58.2239879999999985
11
101.0860119999999966
21
-58.334742999999996
0
LINE
8
BLACK
6
CONTINUOUS
10
101.0860119999999966
20
-58.334742999999996
11
101.1643279999999976
21
-58.4703899999999948
0
LINE
8
BLACK
6
CONTINUOUS
10
101.1643279999999976
20
-58.4703899999999948
11
101.204866999999993
21
-58.6216839999999948
0
LINE
8
BLACK
6
CONTINUOUS
10
101.204866999999993
20
-58.6216839999999948
11
101.204866999999993
21
-58.7783159999999967
0
LINE
8
BLACK
6
CONTINUOUS
10
101.204866999999993
20
-58.7783159999999967
11
101.1643279999999976
21
-58.9296099999999967
0
LINE
8
BLACK
6
CONTINUOUS
10
101.1643279999999976
20
-58.9296099999999967
11
101.0860119999999966
21
-59.0652569999999955
0
LINE
8
BLACK
6
CONTINUOUS
10
101.0860119999999966
20
-59.0652569999999955
11
100.9752569999999992
21
-59.1760120000000001
0
LINE
8
BLACK
6
CONTINUOUS
10
100.9752569999999992
20
-59.1760120000000001
11
100.8396099999999933
21
-59.2543279999999939
0
LINE
8
BLACK
6
CONTINUOUS
10
100.8396099999999933
20
-59.2543279999999939
11
100.6883160000000004
21
-59.2948669999999964
0
LINE
8
BLACK
6
CONTINUOUS
10
100.6883160000000004
20
-59.2948669999999964
11
100.5316839999999985
21
-59.2948669999999964
0
LINE
8
BLACK
6
CONTINUOUS
10
100.5316839999999985
20
-59.2948669999999964
11
100.3803899999999913
21
-59.2543279999999939
0
LINE
8
BLACK
6
CONTINUOUS
10
100.3803899999999913
20
-59.2543279999999939
11
100.2447429999999997
21
-59.1760120000000001
0
LINE
8
BLACK
6
CONTINUOUS
10
100.2447429999999997
20
-59.1760120000000001
11
100.1339880000000022
21
-59.0652569999999955
0
LINE
8
BLACK
6
CONTINUOUS
10
100.1339880000000022
20
-59.0652569999999955
11
100.0556720000000013
21
-58.9296099999999967
0
LINE
8
BLACK
6
CONTINUOUS
10
100.0556720000000013
20
-58.9296099999999967
11
100.0151329999999916
21
-58.7783159999999967
0
LINE
8
BLACK
6
CONTINUOUS
10
100.0151329999999916
20
-58.7783159999999967
11
100.0151329999999916
21
-58.6216839999999948
0
LINE
8
BLACK
6
CONTINUOUS
10
100.0151329999999916
20
-58.6216839999999948
11
100.0556720000000013
21
-58.4703899999999948
0
LINE
8
BLACK
6
CONTINUOUS
10
100.0556720000000013
20
-58.4703899999999948
11
100.1339880000000022
21
-58.334742999999996
0
LINE
8
BLACK
6
CONTINUOUS
10
100.1339880000000022
20
-58.334742999999996
11
100.2447429999999997
21
-58.2239879999999985
0
LINE
8
BLACK
6
CONTINUOUS
10
100.2447429999999997
20
-58.2239879999999985
11
100.3803899999999913
21
-58.1456719999999976
0
LINE
8
BLACK
6
CONTINUOUS
10
100.3803899999999913
20
-58.1456719999999976
11
100.5316839999999985
21
-58.105132999999995
0
LINE
8
BLACK
6
CONTINUOUS
10
100.5316839999999985
20
-58.105132999999995
11
100.6883160000000004
21
-58.105132999999995
0
LINE
8
BLACK
6
CONTINUOUS
10
100.6883160000000004
20
-58.105132999999995
11
100.8396099999999933
21
-58.1456719999999976
0
LINE
8
BLACK
6
CONTINUOUS
10
103.3796099999999996
20
-58.1456719999999976
11
103.5152569999999912
21
-58.2239879999999985
0
LINE
8
BLACK
6
CONTINUOUS
10
103.5152569999999912
20
-58.2239879999999985
11
103.6260119999999887
21
-58.334742999999996
0
LINE
8
BLACK
6
CONTINUOUS
10
103.6260119999999887
20
-58.334742999999996
11
103.7043279999999896
21
-58.4703899999999948
0
LINE
8
BLACK
6
CONTINUOUS
10
103.7043279999999896
20
-58.4703899999999948
11
103.7448669999999993
21
-58.6216839999999948
0
LINE
8
BLACK
6
CONTINUOUS
10
103.7448669999999993
20
-58.6216839999999948
11
103.7448669999999993
21
-58.7783159999999967
0
LINE
8
BLACK
6
CONTINUOUS
10
103.7448669999999993
20
-58.7783159999999967
11
103.7043279999999896
21
-58.9296099999999967
0
LINE
8
BLACK
6
CONTINUOUS
10
103.7043279999999896
20
-58.9296099999999967
11
103.6260119999999887
21
-59.0652569999999955
0
LINE
8
BLACK
6
CONTINUOUS
10
103.6260119999999887
20
-59.0652569999999955
11
103.5152569999999912
21
-59.1760120000000001
0
LINE
8
BLACK
6
CONTINUOUS
10
103.5152569999999912
20
-59.1760120000000001
11
103.3796099999999996
21
-59.2543279999999939
0
LINE
8
BLACK
6
CONTINUOUS
10
103.3796099999999996
20
-59.2543279999999939
11
103.2283159999999924
21
-59.2948669999999964
0
LINE
8
BLACK
6
CONTINUOUS
10
103.2283159999999924
20
-59.2948669999999964
11
103.0716839999999905
21
-59.2948669999999964
0
LINE
8
BLACK
6
CONTINUOUS
10
103.0716839999999905
20
-59.2948669999999964
11
102.9203899999999976
21
-59.2543279999999939
0
LINE
8
BLACK
6
CONTINUOUS
10
102.9203899999999976
20
-59.2543279999999939
11
102.7847429999999918
21
-59.1760120000000001
0
LINE
8
BLACK
6
CONTINUOUS
10
102.7847429999999918
20
-59.1760120000000001
11
102.6739879999999943
21
-59.0652569999999955
0
LINE
8
BLACK
6
CONTINUOUS
10
102.6739879999999943
20
-59.0652569999999955
11
102.5956719999999933
21
-58.9296099999999967
0
LINE
8
BLACK
6
CONTINUOUS
10
102.5956719999999933
20
-58.9296099999999967
11
102.5551329999999979
21
-58.7783159999999967
0
LINE
8
BLACK
6
CONTINUOUS
10
102.5551329999999979
20
-58.7783159999999967
11
102.5551329999999979
21
-58.6216839999999948
0
LINE
8
BLACK
6
CONTINUOUS
10
102.5551329999999979
20
-58.6216839999999948
11
102.5956719999999933
21
-58.4703899999999948
0
LINE
8
BLACK
6
CONTINUOUS
10
102.5956719999999933
20
-58.4703899999999948
11
102.6739879999999943
21
-58.334742999999996
0
LINE
8
BLACK
6
CONTINUOUS
10
102.6739879999999943
20
-58.334742999999996
11
102.7847429999999918
21
-58.2239879999999985
0
LINE
8
BLACK
6
CONTINUOUS
10
102.7847429999999918
20
-58.2239879999999985
11
102.9203899999999976
21
-58.1456719999999976
0
LINE
8
BLACK
6
CONTINUOUS
10
102.9203899999999976
20
-58.1456719999999976
11
103.0716839999999905
21
-58.105132999999995
0
LINE
8
BLACK
6
CONTINUOUS
10
103.0716839999999905
20
-58.105132999999995
11
103.2283159999999924
21
-58.105132999999995
0
LINE
8
BLACK
6
CONTINUOUS
10
103.2283159999999924
20
-58.105132999999995
11
103.3796099999999996
21
-58.1456719999999976
  0
ENDSEC
  0
EOF
